%TF.GenerationSoftware,KiCad,Pcbnew,6.0.4-6f826c9f35~116~ubuntu20.04.1*%
%TF.CreationDate,2022-04-27T15:38:57-05:00*%
%TF.ProjectId,lc-led-flipped,6c632d6c-6564-42d6-966c-69707065642e,rev?*%
%TF.SameCoordinates,Original*%
%TF.FileFunction,Legend,Top*%
%TF.FilePolarity,Positive*%
%FSLAX46Y46*%
G04 Gerber Fmt 4.6, Leading zero omitted, Abs format (unit mm)*
G04 Created by KiCad (PCBNEW 6.0.4-6f826c9f35~116~ubuntu20.04.1) date 2022-04-27 15:38:57*
%MOMM*%
%LPD*%
G01*
G04 APERTURE LIST*
%ADD10C,0.375000*%
%ADD11C,0.250000*%
%ADD12C,0.150000*%
%ADD13C,0.120000*%
G04 APERTURE END LIST*
D10*
X116214285Y-102278571D02*
X116214285Y-100778571D01*
X116928571Y-102278571D02*
X116928571Y-100778571D01*
X117785714Y-102278571D01*
X117785714Y-100778571D01*
D11*
X134142857Y-93928333D02*
X134095238Y-93880714D01*
X134000000Y-93737857D01*
X133952380Y-93642619D01*
X133904761Y-93499761D01*
X133857142Y-93261666D01*
X133857142Y-93071190D01*
X133904761Y-92833095D01*
X133952380Y-92690238D01*
X134000000Y-92595000D01*
X134095238Y-92452142D01*
X134142857Y-92404523D01*
X134952380Y-93499761D02*
X134857142Y-93547380D01*
X134666666Y-93547380D01*
X134571428Y-93499761D01*
X134523809Y-93452142D01*
X134476190Y-93356904D01*
X134476190Y-93071190D01*
X134523809Y-92975952D01*
X134571428Y-92928333D01*
X134666666Y-92880714D01*
X134857142Y-92880714D01*
X134952380Y-92928333D01*
X135285714Y-93928333D02*
X135333333Y-93880714D01*
X135428571Y-93737857D01*
X135476190Y-93642619D01*
X135523809Y-93499761D01*
X135571428Y-93261666D01*
X135571428Y-93071190D01*
X135523809Y-92833095D01*
X135476190Y-92690238D01*
X135428571Y-92595000D01*
X135333333Y-92452142D01*
X135285714Y-92404523D01*
X136000000Y-92642619D02*
X136047619Y-92595000D01*
X136142857Y-92547380D01*
X136380952Y-92547380D01*
X136476190Y-92595000D01*
X136523809Y-92642619D01*
X136571428Y-92737857D01*
X136571428Y-92833095D01*
X136523809Y-92975952D01*
X135952380Y-93547380D01*
X136571428Y-93547380D01*
X137190476Y-92547380D02*
X137285714Y-92547380D01*
X137380952Y-92595000D01*
X137428571Y-92642619D01*
X137476190Y-92737857D01*
X137523809Y-92928333D01*
X137523809Y-93166428D01*
X137476190Y-93356904D01*
X137428571Y-93452142D01*
X137380952Y-93499761D01*
X137285714Y-93547380D01*
X137190476Y-93547380D01*
X137095238Y-93499761D01*
X137047619Y-93452142D01*
X137000000Y-93356904D01*
X136952380Y-93166428D01*
X136952380Y-92928333D01*
X137000000Y-92737857D01*
X137047619Y-92642619D01*
X137095238Y-92595000D01*
X137190476Y-92547380D01*
X137904761Y-92642619D02*
X137952380Y-92595000D01*
X138047619Y-92547380D01*
X138285714Y-92547380D01*
X138380952Y-92595000D01*
X138428571Y-92642619D01*
X138476190Y-92737857D01*
X138476190Y-92833095D01*
X138428571Y-92975952D01*
X137857142Y-93547380D01*
X138476190Y-93547380D01*
X138857142Y-92642619D02*
X138904761Y-92595000D01*
X139000000Y-92547380D01*
X139238095Y-92547380D01*
X139333333Y-92595000D01*
X139380952Y-92642619D01*
X139428571Y-92737857D01*
X139428571Y-92833095D01*
X139380952Y-92975952D01*
X138809523Y-93547380D01*
X139428571Y-93547380D01*
X140619047Y-93547380D02*
X140619047Y-92547380D01*
X141190476Y-93547380D01*
X141190476Y-92547380D01*
X141571428Y-92547380D02*
X142238095Y-93547380D01*
X142238095Y-92547380D02*
X141571428Y-93547380D01*
X142619047Y-93547380D02*
X142619047Y-92547380D01*
X143000000Y-92547380D01*
X143095238Y-92595000D01*
X143142857Y-92642619D01*
X143190476Y-92737857D01*
X143190476Y-92880714D01*
X143142857Y-92975952D01*
X143095238Y-93023571D01*
X143000000Y-93071190D01*
X142619047Y-93071190D01*
X132214285Y-94633571D02*
X132547619Y-94633571D01*
X132690476Y-95157380D02*
X132214285Y-95157380D01*
X132214285Y-94157380D01*
X132690476Y-94157380D01*
X133595238Y-95157380D02*
X133119047Y-95157380D01*
X133119047Y-94157380D01*
X133928571Y-95157380D02*
X133928571Y-94157380D01*
X134261904Y-94871666D01*
X134595238Y-94157380D01*
X134595238Y-95157380D01*
X135500000Y-94490714D02*
X135500000Y-95157380D01*
X135261904Y-94109761D02*
X135023809Y-94824047D01*
X135642857Y-94824047D01*
X136023809Y-94776428D02*
X136785714Y-94776428D01*
X137738095Y-95157380D02*
X137261904Y-95157380D01*
X137261904Y-94157380D01*
X138642857Y-95062142D02*
X138595238Y-95109761D01*
X138452380Y-95157380D01*
X138357142Y-95157380D01*
X138214285Y-95109761D01*
X138119047Y-95014523D01*
X138071428Y-94919285D01*
X138023809Y-94728809D01*
X138023809Y-94585952D01*
X138071428Y-94395476D01*
X138119047Y-94300238D01*
X138214285Y-94205000D01*
X138357142Y-94157380D01*
X138452380Y-94157380D01*
X138595238Y-94205000D01*
X138642857Y-94252619D01*
X139071428Y-94776428D02*
X139833333Y-94776428D01*
X140785714Y-95157380D02*
X140309523Y-95157380D01*
X140309523Y-94157380D01*
X141119047Y-94633571D02*
X141452380Y-94633571D01*
X141595238Y-95157380D02*
X141119047Y-95157380D01*
X141119047Y-94157380D01*
X141595238Y-94157380D01*
X142023809Y-95157380D02*
X142023809Y-94157380D01*
X142261904Y-94157380D01*
X142404761Y-94205000D01*
X142500000Y-94300238D01*
X142547619Y-94395476D01*
X142595238Y-94585952D01*
X142595238Y-94728809D01*
X142547619Y-94919285D01*
X142500000Y-95014523D01*
X142404761Y-95109761D01*
X142261904Y-95157380D01*
X142023809Y-95157380D01*
X143023809Y-94776428D02*
X143785714Y-94776428D01*
X144833333Y-95157380D02*
X144500000Y-94681190D01*
X144261904Y-95157380D02*
X144261904Y-94157380D01*
X144642857Y-94157380D01*
X144738095Y-94205000D01*
X144785714Y-94252619D01*
X144833333Y-94347857D01*
X144833333Y-94490714D01*
X144785714Y-94585952D01*
X144738095Y-94633571D01*
X144642857Y-94681190D01*
X144261904Y-94681190D01*
D10*
X158500000Y-100778571D02*
X158785714Y-100778571D01*
X158928571Y-100850000D01*
X159071428Y-100992857D01*
X159142857Y-101278571D01*
X159142857Y-101778571D01*
X159071428Y-102064285D01*
X158928571Y-102207142D01*
X158785714Y-102278571D01*
X158500000Y-102278571D01*
X158357142Y-102207142D01*
X158214285Y-102064285D01*
X158142857Y-101778571D01*
X158142857Y-101278571D01*
X158214285Y-100992857D01*
X158357142Y-100850000D01*
X158500000Y-100778571D01*
X159785714Y-100778571D02*
X159785714Y-101992857D01*
X159857142Y-102135714D01*
X159928571Y-102207142D01*
X160071428Y-102278571D01*
X160357142Y-102278571D01*
X160500000Y-102207142D01*
X160571428Y-102135714D01*
X160642857Y-101992857D01*
X160642857Y-100778571D01*
X161142857Y-100778571D02*
X162000000Y-100778571D01*
X161571428Y-102278571D02*
X161571428Y-100778571D01*
D12*
%TO.C,LED1*%
X129366738Y-98552380D02*
X128890547Y-98552380D01*
X128890547Y-97552380D01*
X129700071Y-98028571D02*
X130033405Y-98028571D01*
X130176262Y-98552380D02*
X129700071Y-98552380D01*
X129700071Y-97552380D01*
X130176262Y-97552380D01*
X130604833Y-98552380D02*
X130604833Y-97552380D01*
X130842928Y-97552380D01*
X130985786Y-97600000D01*
X131081024Y-97695238D01*
X131128643Y-97790476D01*
X131176262Y-97980952D01*
X131176262Y-98123809D01*
X131128643Y-98314285D01*
X131081024Y-98409523D01*
X130985786Y-98504761D01*
X130842928Y-98552380D01*
X130604833Y-98552380D01*
X132128643Y-98552380D02*
X131557214Y-98552380D01*
X131842928Y-98552380D02*
X131842928Y-97552380D01*
X131747690Y-97695238D01*
X131652452Y-97790476D01*
X131557214Y-97838095D01*
%TO.C,J2*%
X155458166Y-106933333D02*
X156172452Y-106933333D01*
X156315309Y-106980952D01*
X156410547Y-107076190D01*
X156458166Y-107219047D01*
X156458166Y-107314285D01*
X155553405Y-106504761D02*
X155505786Y-106457142D01*
X155458166Y-106361904D01*
X155458166Y-106123809D01*
X155505786Y-106028571D01*
X155553405Y-105980952D01*
X155648643Y-105933333D01*
X155743881Y-105933333D01*
X155886738Y-105980952D01*
X156458166Y-106552380D01*
X156458166Y-105933333D01*
%TO.C,LED2*%
X137366738Y-98552380D02*
X136890547Y-98552380D01*
X136890547Y-97552380D01*
X137700071Y-98028571D02*
X138033405Y-98028571D01*
X138176262Y-98552380D02*
X137700071Y-98552380D01*
X137700071Y-97552380D01*
X138176262Y-97552380D01*
X138604833Y-98552380D02*
X138604833Y-97552380D01*
X138842928Y-97552380D01*
X138985786Y-97600000D01*
X139081024Y-97695238D01*
X139128643Y-97790476D01*
X139176262Y-97980952D01*
X139176262Y-98123809D01*
X139128643Y-98314285D01*
X139081024Y-98409523D01*
X138985786Y-98504761D01*
X138842928Y-98552380D01*
X138604833Y-98552380D01*
X139557214Y-97647619D02*
X139604833Y-97600000D01*
X139700071Y-97552380D01*
X139938166Y-97552380D01*
X140033405Y-97600000D01*
X140081024Y-97647619D01*
X140128643Y-97742857D01*
X140128643Y-97838095D01*
X140081024Y-97980952D01*
X139509595Y-98552380D01*
X140128643Y-98552380D01*
%TO.C,D1*%
X124547690Y-111038166D02*
X124547690Y-110038166D01*
X124785786Y-110038166D01*
X124928643Y-110085786D01*
X125023881Y-110181024D01*
X125071500Y-110276262D01*
X125119119Y-110466738D01*
X125119119Y-110609595D01*
X125071500Y-110800071D01*
X125023881Y-110895309D01*
X124928643Y-110990547D01*
X124785786Y-111038166D01*
X124547690Y-111038166D01*
X126071500Y-111038166D02*
X125500071Y-111038166D01*
X125785786Y-111038166D02*
X125785786Y-110038166D01*
X125690547Y-110181024D01*
X125595309Y-110276262D01*
X125500071Y-110323881D01*
%TO.C,LED3*%
X145366738Y-98552380D02*
X144890547Y-98552380D01*
X144890547Y-97552380D01*
X145700071Y-98028571D02*
X146033405Y-98028571D01*
X146176262Y-98552380D02*
X145700071Y-98552380D01*
X145700071Y-97552380D01*
X146176262Y-97552380D01*
X146604833Y-98552380D02*
X146604833Y-97552380D01*
X146842928Y-97552380D01*
X146985786Y-97600000D01*
X147081024Y-97695238D01*
X147128643Y-97790476D01*
X147176262Y-97980952D01*
X147176262Y-98123809D01*
X147128643Y-98314285D01*
X147081024Y-98409523D01*
X146985786Y-98504761D01*
X146842928Y-98552380D01*
X146604833Y-98552380D01*
X147509595Y-97552380D02*
X148128643Y-97552380D01*
X147795309Y-97933333D01*
X147938166Y-97933333D01*
X148033405Y-97980952D01*
X148081024Y-98028571D01*
X148128643Y-98123809D01*
X148128643Y-98361904D01*
X148081024Y-98457142D01*
X148033405Y-98504761D01*
X147938166Y-98552380D01*
X147652452Y-98552380D01*
X147557214Y-98504761D01*
X147509595Y-98457142D01*
%TO.C,J1*%
X120218166Y-96933333D02*
X120932452Y-96933333D01*
X121075309Y-96980952D01*
X121170547Y-97076190D01*
X121218166Y-97219047D01*
X121218166Y-97314285D01*
X121218166Y-95933333D02*
X121218166Y-96504761D01*
X121218166Y-96219047D02*
X120218166Y-96219047D01*
X120361024Y-96314285D01*
X120456262Y-96409523D01*
X120503881Y-96504761D01*
D13*
%TO.C,LED1*%
X126885786Y-98900000D02*
X132985786Y-98900000D01*
X132985786Y-104300000D02*
X127985786Y-104300000D01*
X126885786Y-100000000D02*
X126885786Y-98900000D01*
%TO.C,J2*%
X158200786Y-109710000D02*
X158200786Y-108660000D01*
X162670786Y-108540000D02*
X162670786Y-104660000D01*
X158200786Y-103490000D02*
X158200786Y-104540000D01*
X158200786Y-108660000D02*
X157210786Y-108660000D01*
X160700786Y-109710000D02*
X158200786Y-109710000D01*
X160700786Y-103490000D02*
X158200786Y-103490000D01*
%TO.C,LED2*%
X140985786Y-104300000D02*
X135985786Y-104300000D01*
X134885786Y-98900000D02*
X140985786Y-98900000D01*
X134885786Y-100000000D02*
X134885786Y-98900000D01*
%TO.C,D1*%
X127535786Y-109585786D02*
X123635786Y-109585786D01*
X127535786Y-107585786D02*
X123635786Y-107585786D01*
X127535786Y-109585786D02*
X127535786Y-107585786D01*
%TO.C,LED3*%
X142885786Y-98900000D02*
X148985786Y-98900000D01*
X142885786Y-100000000D02*
X142885786Y-98900000D01*
X148985786Y-104300000D02*
X143985786Y-104300000D01*
%TO.C,J1*%
X118570786Y-94540000D02*
X119560786Y-94540000D01*
X118570786Y-93490000D02*
X118570786Y-94540000D01*
X118570786Y-99710000D02*
X118570786Y-98660000D01*
X114100786Y-94660000D02*
X114100786Y-98540000D01*
X116070786Y-93490000D02*
X118570786Y-93490000D01*
X116070786Y-99710000D02*
X118570786Y-99710000D01*
%TD*%
M02*
