%TF.GenerationSoftware,KiCad,Pcbnew,6.0.4-6f826c9f35~116~ubuntu20.04.1*%
%TF.CreationDate,2022-04-27T15:38:57-05:00*%
%TF.ProjectId,lc-led-flipped,6c632d6c-6564-42d6-966c-69707065642e,rev?*%
%TF.SameCoordinates,Original*%
%TF.FileFunction,Copper,L1,Top*%
%TF.FilePolarity,Positive*%
%FSLAX46Y46*%
G04 Gerber Fmt 4.6, Leading zero omitted, Abs format (unit mm)*
G04 Created by KiCad (PCBNEW 6.0.4-6f826c9f35~116~ubuntu20.04.1) date 2022-04-27 15:38:57*
%MOMM*%
%LPD*%
G01*
G04 APERTURE LIST*
G04 Aperture macros list*
%AMRoundRect*
0 Rectangle with rounded corners*
0 $1 Rounding radius*
0 $2 $3 $4 $5 $6 $7 $8 $9 X,Y pos of 4 corners*
0 Add a 4 corners polygon primitive as box body*
4,1,4,$2,$3,$4,$5,$6,$7,$8,$9,$2,$3,0*
0 Add four circle primitives for the rounded corners*
1,1,$1+$1,$2,$3*
1,1,$1+$1,$4,$5*
1,1,$1+$1,$6,$7*
1,1,$1+$1,$8,$9*
0 Add four rect primitives between the rounded corners*
20,1,$1+$1,$2,$3,$4,$5,0*
20,1,$1+$1,$4,$5,$6,$7,0*
20,1,$1+$1,$6,$7,$8,$9,0*
20,1,$1+$1,$8,$9,$2,$3,0*%
G04 Aperture macros list end*
%TA.AperFunction,SMDPad,CuDef*%
%ADD10R,2.000000X1.100000*%
%TD*%
%TA.AperFunction,SMDPad,CuDef*%
%ADD11RoundRect,0.150000X0.625000X-0.150000X0.625000X0.150000X-0.625000X0.150000X-0.625000X-0.150000X0*%
%TD*%
%TA.AperFunction,SMDPad,CuDef*%
%ADD12RoundRect,0.250000X0.650000X-0.350000X0.650000X0.350000X-0.650000X0.350000X-0.650000X-0.350000X0*%
%TD*%
%TA.AperFunction,SMDPad,CuDef*%
%ADD13R,0.900000X1.200000*%
%TD*%
%TA.AperFunction,SMDPad,CuDef*%
%ADD14RoundRect,0.150000X-0.625000X0.150000X-0.625000X-0.150000X0.625000X-0.150000X0.625000X0.150000X0*%
%TD*%
%TA.AperFunction,SMDPad,CuDef*%
%ADD15RoundRect,0.250000X-0.650000X0.350000X-0.650000X-0.350000X0.650000X-0.350000X0.650000X0.350000X0*%
%TD*%
%TA.AperFunction,Conductor*%
%ADD16C,0.500000*%
%TD*%
%TA.AperFunction,Conductor*%
%ADD17C,0.250000*%
%TD*%
%TA.AperFunction,Conductor*%
%ADD18C,0.200000*%
%TD*%
G04 APERTURE END LIST*
D10*
%TO.P,LED1,1,DI*%
%TO.N,/D_IN2*%
X128085786Y-99900000D03*
%TO.P,LED1,2,CI*%
%TO.N,/C_IN2*%
X128085786Y-101600000D03*
%TO.P,LED1,3,GND*%
%TO.N,/GND2*%
X128085786Y-103300000D03*
%TO.P,LED1,4,VCC*%
%TO.N,/PWR2*%
X132885786Y-103300000D03*
%TO.P,LED1,5,CO*%
%TO.N,Net-(LED1-Pad5)*%
X132885786Y-101600000D03*
%TO.P,LED1,6,DO*%
%TO.N,Net-(LED1-Pad6)*%
X132885786Y-99900000D03*
%TD*%
D11*
%TO.P,J2,1,Pin_1*%
%TO.N,/GND2*%
X157985786Y-108100000D03*
%TO.P,J2,2,Pin_2*%
%TO.N,/PWR2*%
X157985786Y-107100000D03*
%TO.P,J2,3,Pin_3*%
%TO.N,/D_OUT2*%
X157985786Y-106100000D03*
%TO.P,J2,4,Pin_4*%
%TO.N,/C_OUT2*%
X157985786Y-105100000D03*
D12*
%TO.P,J2,MP*%
%TO.N,/GND2*%
X161860786Y-109400000D03*
X161860786Y-103800000D03*
%TD*%
D10*
%TO.P,LED2,1,DI*%
%TO.N,Net-(LED1-Pad6)*%
X136085786Y-99900000D03*
%TO.P,LED2,2,CI*%
%TO.N,Net-(LED1-Pad5)*%
X136085786Y-101600000D03*
%TO.P,LED2,3,GND*%
%TO.N,/GND2*%
X136085786Y-103300000D03*
%TO.P,LED2,4,VCC*%
%TO.N,/PWR2*%
X140885786Y-103300000D03*
%TO.P,LED2,5,CO*%
%TO.N,Net-(LED2-Pad5)*%
X140885786Y-101600000D03*
%TO.P,LED2,6,DO*%
%TO.N,Net-(LED2-Pad6)*%
X140885786Y-99900000D03*
%TD*%
D13*
%TO.P,D1,1,K*%
%TO.N,/PWR2*%
X126935786Y-108585786D03*
%TO.P,D1,2,A*%
%TO.N,/5V_2*%
X123635786Y-108585786D03*
%TD*%
D10*
%TO.P,LED3,1,DI*%
%TO.N,Net-(LED2-Pad6)*%
X144085786Y-99900000D03*
%TO.P,LED3,2,CI*%
%TO.N,Net-(LED2-Pad5)*%
X144085786Y-101600000D03*
%TO.P,LED3,3,GND*%
%TO.N,/GND2*%
X144085786Y-103300000D03*
%TO.P,LED3,4,VCC*%
%TO.N,/PWR2*%
X148885786Y-103300000D03*
%TO.P,LED3,5,CO*%
%TO.N,/C_OUT2*%
X148885786Y-101600000D03*
%TO.P,LED3,6,DO*%
%TO.N,/D_OUT2*%
X148885786Y-99900000D03*
%TD*%
D14*
%TO.P,J1,1,Pin_1*%
%TO.N,/GND2*%
X118785786Y-95100000D03*
%TO.P,J1,2,Pin_2*%
%TO.N,/5V_2*%
X118785786Y-96100000D03*
%TO.P,J1,3,Pin_3*%
%TO.N,/D_IN2*%
X118785786Y-97100000D03*
%TO.P,J1,4,Pin_4*%
%TO.N,/C_IN2*%
X118785786Y-98100000D03*
D15*
%TO.P,J1,MP*%
%TO.N,/GND2*%
X114910786Y-93800000D03*
X114910786Y-99400000D03*
%TD*%
D16*
%TO.N,/PWR2*%
X140585786Y-108585786D02*
X140885786Y-108285786D01*
X133185786Y-108585786D02*
X140585786Y-108585786D01*
X149185786Y-108585786D02*
X154514214Y-108585786D01*
X148585786Y-108585786D02*
X148885786Y-108285786D01*
X154514214Y-108585786D02*
X156000000Y-107100000D01*
X140885786Y-108285786D02*
X141185786Y-108585786D01*
X126935786Y-108585786D02*
X132585786Y-108585786D01*
X156000000Y-107100000D02*
X157985786Y-107100000D01*
X140885786Y-108285786D02*
X140885786Y-103785786D01*
X148885786Y-108285786D02*
X148885786Y-103785786D01*
X148885786Y-108285786D02*
X149185786Y-108585786D01*
X132585786Y-108585786D02*
X132885786Y-108285786D01*
X132885786Y-108285786D02*
X132885786Y-103785786D01*
X132885786Y-108285786D02*
X133185786Y-108585786D01*
X141185786Y-108585786D02*
X148585786Y-108585786D01*
%TO.N,/5V_2*%
X122000000Y-105400000D02*
X122000000Y-107900000D01*
X116800000Y-100200000D02*
X122000000Y-105400000D01*
X122685786Y-108585786D02*
X123635786Y-108585786D01*
X122000000Y-107900000D02*
X122685786Y-108585786D01*
X117300000Y-96100000D02*
X116800000Y-96600000D01*
X118785786Y-96100000D02*
X117300000Y-96100000D01*
X116800000Y-96600000D02*
X116800000Y-100200000D01*
D17*
%TO.N,/D_IN2*%
X122600000Y-97100000D02*
X125400000Y-99900000D01*
X118785786Y-97100000D02*
X122600000Y-97100000D01*
X125400000Y-99900000D02*
X128085786Y-99900000D01*
%TO.N,/C_IN2*%
X126100000Y-101600000D02*
X128085786Y-101600000D01*
X118785786Y-98100000D02*
X122600000Y-98100000D01*
X122600000Y-98100000D02*
X126100000Y-101600000D01*
%TO.N,/D_OUT2*%
X159100000Y-106100000D02*
X157985786Y-106100000D01*
X158800000Y-103900000D02*
X159600000Y-104700000D01*
X159600000Y-104700000D02*
X159600000Y-105600000D01*
X148885786Y-99900000D02*
X151900000Y-99900000D01*
X151900000Y-99900000D02*
X155900000Y-103900000D01*
X155900000Y-103900000D02*
X158800000Y-103900000D01*
X159600000Y-105600000D02*
X159100000Y-106100000D01*
%TO.N,/C_OUT2*%
X152900000Y-101600000D02*
X156400000Y-105100000D01*
X148885786Y-101600000D02*
X152900000Y-101600000D01*
X156400000Y-105100000D02*
X157985786Y-105100000D01*
D18*
%TO.N,Net-(LED1-Pad5)*%
X132885786Y-101600000D02*
X136085786Y-101600000D01*
%TO.N,Net-(LED1-Pad6)*%
X132885786Y-99900000D02*
X136085786Y-99900000D01*
%TO.N,Net-(LED2-Pad5)*%
X140885786Y-101600000D02*
X144085786Y-101600000D01*
%TO.N,Net-(LED2-Pad6)*%
X140885786Y-99900000D02*
X144085786Y-99900000D01*
%TD*%
%TA.AperFunction,Conductor*%
%TO.N,/GND2*%
G36*
X161387103Y-91856921D02*
G01*
X161400000Y-91859486D01*
X161412172Y-91857065D01*
X161424579Y-91857065D01*
X161424579Y-91857705D01*
X161435358Y-91857029D01*
X161619248Y-91870181D01*
X161639420Y-91871624D01*
X161657214Y-91874182D01*
X161882960Y-91923290D01*
X161900209Y-91928355D01*
X161955356Y-91948923D01*
X162116670Y-92009090D01*
X162133017Y-92016556D01*
X162335782Y-92127275D01*
X162350905Y-92136994D01*
X162535848Y-92275441D01*
X162549434Y-92287214D01*
X162712786Y-92450566D01*
X162724559Y-92464152D01*
X162863006Y-92649095D01*
X162872725Y-92664218D01*
X162983444Y-92866983D01*
X162990910Y-92883330D01*
X163034508Y-93000222D01*
X163071645Y-93099791D01*
X163076710Y-93117040D01*
X163125818Y-93342786D01*
X163128376Y-93360580D01*
X163141638Y-93546000D01*
X163142971Y-93564639D01*
X163142295Y-93575421D01*
X163142935Y-93575421D01*
X163142935Y-93587828D01*
X163140514Y-93600000D01*
X163142935Y-93612170D01*
X163143079Y-93612894D01*
X163145500Y-93637476D01*
X163145500Y-103078222D01*
X163125498Y-103146343D01*
X163071842Y-103192836D01*
X163001568Y-103202940D01*
X162936988Y-103173446D01*
X162918674Y-103153787D01*
X162876214Y-103097133D01*
X162863653Y-103084572D01*
X162762490Y-103008754D01*
X162746904Y-103000222D01*
X162627521Y-102955467D01*
X162612276Y-102951842D01*
X162561894Y-102946369D01*
X162555080Y-102946000D01*
X162132901Y-102946000D01*
X162117662Y-102950475D01*
X162116457Y-102951865D01*
X162114786Y-102959548D01*
X162114786Y-104635884D01*
X162119261Y-104651123D01*
X162120651Y-104652328D01*
X162128334Y-104653999D01*
X162555078Y-104653999D01*
X162561896Y-104653630D01*
X162612268Y-104648159D01*
X162627527Y-104644530D01*
X162746904Y-104599778D01*
X162762490Y-104591246D01*
X162863653Y-104515428D01*
X162876214Y-104502867D01*
X162918674Y-104446213D01*
X162975533Y-104403698D01*
X163046352Y-104398672D01*
X163108645Y-104432732D01*
X163142635Y-104495063D01*
X163145500Y-104521778D01*
X163145500Y-108678222D01*
X163125498Y-108746343D01*
X163071842Y-108792836D01*
X163001568Y-108802940D01*
X162936988Y-108773446D01*
X162918674Y-108753787D01*
X162876214Y-108697133D01*
X162863653Y-108684572D01*
X162762490Y-108608754D01*
X162746904Y-108600222D01*
X162627521Y-108555467D01*
X162612276Y-108551842D01*
X162561894Y-108546369D01*
X162555080Y-108546000D01*
X162132901Y-108546000D01*
X162117662Y-108550475D01*
X162116457Y-108551865D01*
X162114786Y-108559548D01*
X162114786Y-110235884D01*
X162119261Y-110251123D01*
X162120651Y-110252328D01*
X162128334Y-110253999D01*
X162555078Y-110253999D01*
X162561896Y-110253630D01*
X162612268Y-110248159D01*
X162627527Y-110244530D01*
X162746904Y-110199778D01*
X162762490Y-110191246D01*
X162800730Y-110162586D01*
X162867236Y-110137738D01*
X162936619Y-110152791D01*
X162986849Y-110202965D01*
X163001979Y-110272331D01*
X162994353Y-110307438D01*
X162990911Y-110316666D01*
X162983444Y-110333017D01*
X162872725Y-110535782D01*
X162863006Y-110550905D01*
X162724559Y-110735848D01*
X162712786Y-110749434D01*
X162549434Y-110912786D01*
X162535848Y-110924559D01*
X162350905Y-111063006D01*
X162335782Y-111072725D01*
X162133017Y-111183444D01*
X162116670Y-111190910D01*
X161955356Y-111251077D01*
X161900209Y-111271645D01*
X161882960Y-111276710D01*
X161657214Y-111325818D01*
X161639420Y-111328376D01*
X161619248Y-111329819D01*
X161435358Y-111342971D01*
X161424579Y-111342295D01*
X161424579Y-111342935D01*
X161412172Y-111342935D01*
X161400000Y-111340514D01*
X161387103Y-111343079D01*
X161362524Y-111345500D01*
X115437476Y-111345500D01*
X115412897Y-111343079D01*
X115400000Y-111340514D01*
X115387828Y-111342935D01*
X115375421Y-111342935D01*
X115375421Y-111342295D01*
X115364642Y-111342971D01*
X115180752Y-111329819D01*
X115160580Y-111328376D01*
X115142786Y-111325818D01*
X114917040Y-111276710D01*
X114899791Y-111271645D01*
X114844644Y-111251077D01*
X114683330Y-111190910D01*
X114666983Y-111183444D01*
X114464218Y-111072725D01*
X114449095Y-111063006D01*
X114264152Y-110924559D01*
X114250566Y-110912786D01*
X114087214Y-110749434D01*
X114075441Y-110735848D01*
X113936994Y-110550905D01*
X113927275Y-110535782D01*
X113816556Y-110333017D01*
X113809090Y-110316670D01*
X113728355Y-110100209D01*
X113723290Y-110082960D01*
X113674182Y-109857214D01*
X113671624Y-109839420D01*
X113668396Y-109794292D01*
X160706787Y-109794292D01*
X160707156Y-109801110D01*
X160712627Y-109851482D01*
X160716256Y-109866741D01*
X160761008Y-109986118D01*
X160769540Y-110001704D01*
X160845358Y-110102867D01*
X160857919Y-110115428D01*
X160959082Y-110191246D01*
X160974668Y-110199778D01*
X161094051Y-110244533D01*
X161109296Y-110248158D01*
X161159678Y-110253631D01*
X161166492Y-110254000D01*
X161588671Y-110254000D01*
X161603910Y-110249525D01*
X161605115Y-110248135D01*
X161606786Y-110240452D01*
X161606786Y-109672115D01*
X161602311Y-109656876D01*
X161600921Y-109655671D01*
X161593238Y-109654000D01*
X160724902Y-109654000D01*
X160709663Y-109658475D01*
X160708458Y-109659865D01*
X160706787Y-109667548D01*
X160706787Y-109794292D01*
X113668396Y-109794292D01*
X113658782Y-109659865D01*
X113657029Y-109635358D01*
X113657705Y-109624579D01*
X113657065Y-109624579D01*
X113657065Y-109612172D01*
X113659486Y-109600000D01*
X113656921Y-109587103D01*
X113654500Y-109562524D01*
X113654500Y-106600000D01*
X116040448Y-106600000D01*
X116040718Y-106604119D01*
X116052315Y-106781051D01*
X116060634Y-106907983D01*
X116061436Y-106912016D01*
X116061437Y-106912022D01*
X116120042Y-107206647D01*
X116120848Y-107210697D01*
X116122175Y-107214606D01*
X116122176Y-107214610D01*
X116212905Y-107481890D01*
X116220058Y-107502961D01*
X116271551Y-107607379D01*
X116338743Y-107743630D01*
X116356568Y-107779776D01*
X116378512Y-107812618D01*
X116524390Y-108030938D01*
X116528042Y-108036404D01*
X116731545Y-108268455D01*
X116963596Y-108471958D01*
X116967022Y-108474247D01*
X116967027Y-108474251D01*
X117116171Y-108573906D01*
X117220224Y-108643432D01*
X117223923Y-108645256D01*
X117223928Y-108645259D01*
X117329119Y-108697133D01*
X117497039Y-108779942D01*
X117500944Y-108781267D01*
X117500945Y-108781268D01*
X117785390Y-108877824D01*
X117785394Y-108877825D01*
X117789303Y-108879152D01*
X117793347Y-108879956D01*
X117793353Y-108879958D01*
X118087978Y-108938563D01*
X118087984Y-108938564D01*
X118092017Y-108939366D01*
X118096122Y-108939635D01*
X118096129Y-108939636D01*
X118395881Y-108959282D01*
X118400000Y-108959552D01*
X118404119Y-108959282D01*
X118703871Y-108939636D01*
X118703878Y-108939635D01*
X118707983Y-108939366D01*
X118712016Y-108938564D01*
X118712022Y-108938563D01*
X119006647Y-108879958D01*
X119006653Y-108879956D01*
X119010697Y-108879152D01*
X119014606Y-108877825D01*
X119014610Y-108877824D01*
X119299055Y-108781268D01*
X119299056Y-108781267D01*
X119302961Y-108779942D01*
X119470881Y-108697133D01*
X119576072Y-108645259D01*
X119576077Y-108645256D01*
X119579776Y-108643432D01*
X119683829Y-108573906D01*
X119832973Y-108474251D01*
X119832978Y-108474247D01*
X119836404Y-108471958D01*
X120068455Y-108268455D01*
X120271958Y-108036404D01*
X120275611Y-108030938D01*
X120421488Y-107812618D01*
X120443432Y-107779776D01*
X120461258Y-107743630D01*
X120528449Y-107607379D01*
X120579942Y-107502961D01*
X120587095Y-107481890D01*
X120677824Y-107214610D01*
X120677825Y-107214606D01*
X120679152Y-107210697D01*
X120679958Y-107206647D01*
X120738563Y-106912022D01*
X120738564Y-106912016D01*
X120739366Y-106907983D01*
X120747686Y-106781051D01*
X120759282Y-106604119D01*
X120759552Y-106600000D01*
X120751821Y-106482049D01*
X120739636Y-106296129D01*
X120739635Y-106296122D01*
X120739366Y-106292017D01*
X120737341Y-106281834D01*
X120679958Y-105993353D01*
X120679956Y-105993347D01*
X120679152Y-105989303D01*
X120655005Y-105918166D01*
X120581268Y-105700945D01*
X120581267Y-105700944D01*
X120579942Y-105697039D01*
X120473755Y-105481713D01*
X120445259Y-105423928D01*
X120445256Y-105423923D01*
X120443432Y-105420224D01*
X120360857Y-105296642D01*
X120274251Y-105167027D01*
X120274247Y-105167022D01*
X120271958Y-105163596D01*
X120068455Y-104931545D01*
X119836404Y-104728042D01*
X119832978Y-104725753D01*
X119832973Y-104725749D01*
X119592400Y-104565003D01*
X119579776Y-104556568D01*
X119576077Y-104554744D01*
X119576072Y-104554741D01*
X119392444Y-104464186D01*
X119302961Y-104420058D01*
X119202977Y-104386118D01*
X119014610Y-104322176D01*
X119014606Y-104322175D01*
X119010697Y-104320848D01*
X119006653Y-104320044D01*
X119006647Y-104320042D01*
X118712022Y-104261437D01*
X118712016Y-104261436D01*
X118707983Y-104260634D01*
X118703878Y-104260365D01*
X118703871Y-104260364D01*
X118404119Y-104240718D01*
X118400000Y-104240448D01*
X118395881Y-104240718D01*
X118096129Y-104260364D01*
X118096122Y-104260365D01*
X118092017Y-104260634D01*
X118087984Y-104261436D01*
X118087978Y-104261437D01*
X117793353Y-104320042D01*
X117793347Y-104320044D01*
X117789303Y-104320848D01*
X117785394Y-104322175D01*
X117785390Y-104322176D01*
X117597023Y-104386118D01*
X117497039Y-104420058D01*
X117407556Y-104464186D01*
X117223928Y-104554741D01*
X117223923Y-104554744D01*
X117220224Y-104556568D01*
X117207600Y-104565003D01*
X116967027Y-104725749D01*
X116967022Y-104725753D01*
X116963596Y-104728042D01*
X116731545Y-104931545D01*
X116528042Y-105163596D01*
X116525753Y-105167022D01*
X116525749Y-105167027D01*
X116439143Y-105296642D01*
X116356568Y-105420224D01*
X116354744Y-105423923D01*
X116354741Y-105423928D01*
X116326245Y-105481713D01*
X116220058Y-105697039D01*
X116218733Y-105700944D01*
X116218732Y-105700945D01*
X116144996Y-105918166D01*
X116120848Y-105989303D01*
X116120044Y-105993347D01*
X116120042Y-105993353D01*
X116062660Y-106281834D01*
X116060634Y-106292017D01*
X116060365Y-106296122D01*
X116060364Y-106296129D01*
X116048317Y-106479928D01*
X116044247Y-106542031D01*
X116040448Y-106600000D01*
X113654500Y-106600000D01*
X113654500Y-100159709D01*
X113674502Y-100091588D01*
X113728158Y-100045095D01*
X113798432Y-100034991D01*
X113863012Y-100064485D01*
X113881327Y-100084145D01*
X113895359Y-100102868D01*
X113907919Y-100115428D01*
X114009082Y-100191246D01*
X114024668Y-100199778D01*
X114144051Y-100244533D01*
X114159296Y-100248158D01*
X114209678Y-100253631D01*
X114216492Y-100254000D01*
X114638671Y-100254000D01*
X114653910Y-100249525D01*
X114655115Y-100248135D01*
X114656786Y-100240452D01*
X114656786Y-100235884D01*
X115164786Y-100235884D01*
X115169261Y-100251123D01*
X115170651Y-100252328D01*
X115178334Y-100253999D01*
X115605078Y-100253999D01*
X115611896Y-100253630D01*
X115662268Y-100248159D01*
X115677527Y-100244530D01*
X115796904Y-100199778D01*
X115812490Y-100191246D01*
X115913653Y-100115428D01*
X115926214Y-100102867D01*
X116002032Y-100001704D01*
X116010564Y-99986118D01*
X116051518Y-99876874D01*
X116094159Y-99820109D01*
X116160721Y-99795409D01*
X116230070Y-99810616D01*
X116280188Y-99860902D01*
X116295500Y-99921103D01*
X116295500Y-100129376D01*
X116294159Y-100141381D01*
X116294655Y-100141421D01*
X116293935Y-100150368D01*
X116291954Y-100159124D01*
X116292510Y-100168084D01*
X116295258Y-100212382D01*
X116295500Y-100220184D01*
X116295500Y-100236226D01*
X116296135Y-100240657D01*
X116296135Y-100240662D01*
X116296965Y-100246453D01*
X116297996Y-100256514D01*
X116300902Y-100303359D01*
X116303949Y-100311799D01*
X116304630Y-100315089D01*
X116308582Y-100330938D01*
X116309527Y-100334168D01*
X116310799Y-100343052D01*
X116314514Y-100351223D01*
X116330218Y-100385763D01*
X116334030Y-100395128D01*
X116346922Y-100430837D01*
X116346924Y-100430840D01*
X116349972Y-100439284D01*
X116355268Y-100446533D01*
X116356840Y-100449490D01*
X116365093Y-100463614D01*
X116366898Y-100466437D01*
X116370612Y-100474605D01*
X116376469Y-100481402D01*
X116376470Y-100481404D01*
X116401243Y-100510153D01*
X116407525Y-100518064D01*
X116415473Y-100528944D01*
X116426335Y-100539806D01*
X116432693Y-100546652D01*
X116464944Y-100584082D01*
X116472479Y-100588966D01*
X116479051Y-100594699D01*
X116490455Y-100603926D01*
X118983663Y-103097133D01*
X121458595Y-105572065D01*
X121492621Y-105634377D01*
X121495500Y-105661160D01*
X121495500Y-107829376D01*
X121494159Y-107841381D01*
X121494655Y-107841421D01*
X121493935Y-107850368D01*
X121491954Y-107859124D01*
X121492510Y-107868084D01*
X121495258Y-107912382D01*
X121495500Y-107920184D01*
X121495500Y-107936226D01*
X121496135Y-107940657D01*
X121496135Y-107940662D01*
X121496965Y-107946453D01*
X121497996Y-107956514D01*
X121500902Y-108003359D01*
X121503949Y-108011799D01*
X121504630Y-108015089D01*
X121508582Y-108030938D01*
X121509527Y-108034168D01*
X121510799Y-108043052D01*
X121514514Y-108051223D01*
X121530218Y-108085763D01*
X121534030Y-108095128D01*
X121546922Y-108130837D01*
X121546924Y-108130840D01*
X121549972Y-108139284D01*
X121555268Y-108146533D01*
X121556840Y-108149490D01*
X121565093Y-108163614D01*
X121566898Y-108166437D01*
X121570612Y-108174605D01*
X121576469Y-108181402D01*
X121576470Y-108181404D01*
X121601243Y-108210153D01*
X121607525Y-108218064D01*
X121615473Y-108228944D01*
X121626335Y-108239806D01*
X121632693Y-108246652D01*
X121664944Y-108284082D01*
X121672479Y-108288966D01*
X121679051Y-108294699D01*
X121690455Y-108303926D01*
X122279109Y-108892580D01*
X122286651Y-108902020D01*
X122287031Y-108901697D01*
X122292849Y-108908533D01*
X122297639Y-108916125D01*
X122304367Y-108922067D01*
X122337645Y-108951457D01*
X122343332Y-108956803D01*
X122354666Y-108968137D01*
X122358249Y-108970822D01*
X122358251Y-108970824D01*
X122362941Y-108974339D01*
X122370786Y-108980726D01*
X122399071Y-109005706D01*
X122405956Y-109011787D01*
X122414078Y-109015600D01*
X122416879Y-109017440D01*
X122430874Y-109025849D01*
X122433837Y-109027471D01*
X122441022Y-109032856D01*
X122449432Y-109036009D01*
X122449434Y-109036010D01*
X122484968Y-109049332D01*
X122494281Y-109053256D01*
X122536768Y-109073203D01*
X122545642Y-109074585D01*
X122548869Y-109075571D01*
X122564652Y-109079711D01*
X122567930Y-109080432D01*
X122576338Y-109083584D01*
X122590095Y-109084606D01*
X122623143Y-109087062D01*
X122633190Y-109088216D01*
X122641672Y-109089537D01*
X122641675Y-109089537D01*
X122646483Y-109090286D01*
X122661848Y-109090286D01*
X122671186Y-109090632D01*
X122720453Y-109094293D01*
X122729228Y-109092420D01*
X122737924Y-109091827D01*
X122752524Y-109090286D01*
X122805822Y-109090286D01*
X122873943Y-109110288D01*
X122920436Y-109163944D01*
X122931215Y-109203933D01*
X122931287Y-109204663D01*
X122931287Y-109210852D01*
X122946052Y-109285087D01*
X123002302Y-109369270D01*
X123086485Y-109425520D01*
X123160719Y-109440286D01*
X123635709Y-109440286D01*
X124110852Y-109440285D01*
X124146604Y-109433174D01*
X124172912Y-109427942D01*
X124172914Y-109427941D01*
X124185087Y-109425520D01*
X124195407Y-109418625D01*
X124195408Y-109418624D01*
X124258954Y-109376163D01*
X124269270Y-109369270D01*
X124325520Y-109285087D01*
X124340286Y-109210853D01*
X124340285Y-107960720D01*
X124340285Y-107960719D01*
X126231286Y-107960719D01*
X126231287Y-109210852D01*
X126246052Y-109285087D01*
X126302302Y-109369270D01*
X126386485Y-109425520D01*
X126460719Y-109440286D01*
X126935709Y-109440286D01*
X127410852Y-109440285D01*
X127446604Y-109433174D01*
X127472912Y-109427942D01*
X127472914Y-109427941D01*
X127485087Y-109425520D01*
X127495407Y-109418625D01*
X127495408Y-109418624D01*
X127558954Y-109376163D01*
X127569270Y-109369270D01*
X127625520Y-109285087D01*
X127640286Y-109210853D01*
X127640286Y-109204663D01*
X127640358Y-109203935D01*
X127666941Y-109138103D01*
X127681381Y-109127885D01*
X160706786Y-109127885D01*
X160711261Y-109143124D01*
X160712651Y-109144329D01*
X160720334Y-109146000D01*
X161588671Y-109146000D01*
X161603910Y-109141525D01*
X161605115Y-109140135D01*
X161606786Y-109132452D01*
X161606786Y-108564116D01*
X161602311Y-108548877D01*
X161600921Y-108547672D01*
X161593238Y-108546001D01*
X161166494Y-108546001D01*
X161159676Y-108546370D01*
X161109304Y-108551841D01*
X161094045Y-108555470D01*
X160974668Y-108600222D01*
X160959082Y-108608754D01*
X160857919Y-108684572D01*
X160845358Y-108697133D01*
X160769540Y-108798296D01*
X160761008Y-108813882D01*
X160716253Y-108933265D01*
X160712628Y-108948510D01*
X160707155Y-108998892D01*
X160706786Y-109005706D01*
X160706786Y-109127885D01*
X127681381Y-109127885D01*
X127724895Y-109097094D01*
X127765751Y-109090286D01*
X132515162Y-109090286D01*
X132527167Y-109091627D01*
X132527207Y-109091131D01*
X132536154Y-109091851D01*
X132544910Y-109093832D01*
X132598168Y-109090528D01*
X132605970Y-109090286D01*
X132622012Y-109090286D01*
X132626443Y-109089651D01*
X132626448Y-109089651D01*
X132630473Y-109089074D01*
X132632243Y-109088821D01*
X132642300Y-109087790D01*
X132664762Y-109086397D01*
X132680186Y-109085440D01*
X132680188Y-109085440D01*
X132689145Y-109084884D01*
X132697585Y-109081837D01*
X132700875Y-109081156D01*
X132716724Y-109077204D01*
X132719954Y-109076259D01*
X132728838Y-109074987D01*
X132771549Y-109055568D01*
X132780914Y-109051756D01*
X132816622Y-109038865D01*
X132816629Y-109038861D01*
X132825070Y-109035814D01*
X132828777Y-109033106D01*
X132896153Y-109019232D01*
X132940685Y-109032604D01*
X132941022Y-109032856D01*
X132949428Y-109036007D01*
X132949431Y-109036009D01*
X132984968Y-109049332D01*
X132994281Y-109053256D01*
X133036768Y-109073203D01*
X133045642Y-109074585D01*
X133048869Y-109075571D01*
X133064652Y-109079711D01*
X133067930Y-109080432D01*
X133076338Y-109083584D01*
X133090095Y-109084606D01*
X133123143Y-109087062D01*
X133133190Y-109088216D01*
X133141672Y-109089537D01*
X133141675Y-109089537D01*
X133146483Y-109090286D01*
X133161848Y-109090286D01*
X133171186Y-109090632D01*
X133220453Y-109094293D01*
X133229228Y-109092420D01*
X133237924Y-109091827D01*
X133252524Y-109090286D01*
X140515162Y-109090286D01*
X140527167Y-109091627D01*
X140527207Y-109091131D01*
X140536154Y-109091851D01*
X140544910Y-109093832D01*
X140598168Y-109090528D01*
X140605970Y-109090286D01*
X140622012Y-109090286D01*
X140626443Y-109089651D01*
X140626448Y-109089651D01*
X140630473Y-109089074D01*
X140632243Y-109088821D01*
X140642300Y-109087790D01*
X140664762Y-109086397D01*
X140680186Y-109085440D01*
X140680188Y-109085440D01*
X140689145Y-109084884D01*
X140697585Y-109081837D01*
X140700875Y-109081156D01*
X140716724Y-109077204D01*
X140719954Y-109076259D01*
X140728838Y-109074987D01*
X140771549Y-109055568D01*
X140780914Y-109051756D01*
X140816622Y-109038865D01*
X140816629Y-109038861D01*
X140825070Y-109035814D01*
X140828777Y-109033106D01*
X140896153Y-109019232D01*
X140940685Y-109032604D01*
X140941022Y-109032856D01*
X140949428Y-109036007D01*
X140949431Y-109036009D01*
X140984968Y-109049332D01*
X140994281Y-109053256D01*
X141036768Y-109073203D01*
X141045642Y-109074585D01*
X141048869Y-109075571D01*
X141064652Y-109079711D01*
X141067930Y-109080432D01*
X141076338Y-109083584D01*
X141090095Y-109084606D01*
X141123143Y-109087062D01*
X141133190Y-109088216D01*
X141141672Y-109089537D01*
X141141675Y-109089537D01*
X141146483Y-109090286D01*
X141161848Y-109090286D01*
X141171186Y-109090632D01*
X141220453Y-109094293D01*
X141229228Y-109092420D01*
X141237924Y-109091827D01*
X141252524Y-109090286D01*
X148515162Y-109090286D01*
X148527167Y-109091627D01*
X148527207Y-109091131D01*
X148536154Y-109091851D01*
X148544910Y-109093832D01*
X148598168Y-109090528D01*
X148605970Y-109090286D01*
X148622012Y-109090286D01*
X148626443Y-109089651D01*
X148626448Y-109089651D01*
X148630473Y-109089074D01*
X148632243Y-109088821D01*
X148642300Y-109087790D01*
X148664762Y-109086397D01*
X148680186Y-109085440D01*
X148680188Y-109085440D01*
X148689145Y-109084884D01*
X148697585Y-109081837D01*
X148700875Y-109081156D01*
X148716724Y-109077204D01*
X148719954Y-109076259D01*
X148728838Y-109074987D01*
X148771549Y-109055568D01*
X148780914Y-109051756D01*
X148816622Y-109038865D01*
X148816629Y-109038861D01*
X148825070Y-109035814D01*
X148828777Y-109033106D01*
X148896153Y-109019232D01*
X148940685Y-109032604D01*
X148941022Y-109032856D01*
X148949428Y-109036007D01*
X148949431Y-109036009D01*
X148984968Y-109049332D01*
X148994281Y-109053256D01*
X149036768Y-109073203D01*
X149045642Y-109074585D01*
X149048869Y-109075571D01*
X149064652Y-109079711D01*
X149067930Y-109080432D01*
X149076338Y-109083584D01*
X149090095Y-109084606D01*
X149123143Y-109087062D01*
X149133190Y-109088216D01*
X149141672Y-109089537D01*
X149141675Y-109089537D01*
X149146483Y-109090286D01*
X149161848Y-109090286D01*
X149171186Y-109090632D01*
X149220453Y-109094293D01*
X149229228Y-109092420D01*
X149237924Y-109091827D01*
X149252524Y-109090286D01*
X154443590Y-109090286D01*
X154455595Y-109091627D01*
X154455635Y-109091131D01*
X154464582Y-109091851D01*
X154473338Y-109093832D01*
X154526596Y-109090528D01*
X154534398Y-109090286D01*
X154550440Y-109090286D01*
X154554871Y-109089651D01*
X154554876Y-109089651D01*
X154558901Y-109089074D01*
X154560671Y-109088821D01*
X154570728Y-109087790D01*
X154593190Y-109086397D01*
X154608614Y-109085440D01*
X154608616Y-109085440D01*
X154617573Y-109084884D01*
X154626013Y-109081837D01*
X154629303Y-109081156D01*
X154645152Y-109077204D01*
X154648382Y-109076259D01*
X154657266Y-109074987D01*
X154699977Y-109055568D01*
X154709342Y-109051756D01*
X154745051Y-109038864D01*
X154745054Y-109038862D01*
X154753498Y-109035814D01*
X154760747Y-109030518D01*
X154763704Y-109028946D01*
X154777828Y-109020693D01*
X154780651Y-109018888D01*
X154788819Y-109015174D01*
X154795616Y-109009317D01*
X154795618Y-109009316D01*
X154824367Y-108984543D01*
X154832278Y-108978261D01*
X154843158Y-108970313D01*
X154854020Y-108959451D01*
X154860867Y-108953093D01*
X154866186Y-108948510D01*
X154898296Y-108920842D01*
X154903180Y-108913307D01*
X154908913Y-108906735D01*
X154918140Y-108895331D01*
X155443198Y-108370273D01*
X156971411Y-108370273D01*
X156976272Y-108385234D01*
X157025369Y-108481593D01*
X157036880Y-108497436D01*
X157113350Y-108573906D01*
X157129193Y-108585417D01*
X157225554Y-108634515D01*
X157244178Y-108640567D01*
X157324101Y-108653225D01*
X157333944Y-108654000D01*
X157713671Y-108654000D01*
X157728910Y-108649525D01*
X157730115Y-108648135D01*
X157731786Y-108640452D01*
X157731786Y-108635884D01*
X158239786Y-108635884D01*
X158244261Y-108651123D01*
X158245651Y-108652328D01*
X158253334Y-108653999D01*
X158637626Y-108653999D01*
X158647473Y-108653224D01*
X158727393Y-108640567D01*
X158746019Y-108634515D01*
X158842379Y-108585417D01*
X158858222Y-108573906D01*
X158934692Y-108497436D01*
X158946203Y-108481593D01*
X158995302Y-108385231D01*
X159000265Y-108369955D01*
X158998748Y-108358212D01*
X158984774Y-108354000D01*
X158257901Y-108354000D01*
X158242662Y-108358475D01*
X158241457Y-108359865D01*
X158239786Y-108367548D01*
X158239786Y-108635884D01*
X157731786Y-108635884D01*
X157731786Y-108372115D01*
X157727311Y-108356876D01*
X157725921Y-108355671D01*
X157718238Y-108354000D01*
X156986338Y-108354000D01*
X156973102Y-108357887D01*
X156971411Y-108370273D01*
X155443198Y-108370273D01*
X156172066Y-107641405D01*
X156234378Y-107607379D01*
X156261161Y-107604500D01*
X156877794Y-107604500D01*
X156945915Y-107624502D01*
X156992408Y-107678158D01*
X157002512Y-107748432D01*
X156990061Y-107787703D01*
X156976270Y-107814769D01*
X156971307Y-107830045D01*
X156972824Y-107841788D01*
X156986798Y-107846000D01*
X158985234Y-107846000D01*
X158998470Y-107842113D01*
X159000161Y-107829727D01*
X158995300Y-107814766D01*
X158946203Y-107718407D01*
X158934692Y-107702564D01*
X158921577Y-107689449D01*
X158887551Y-107627137D01*
X158892616Y-107556322D01*
X158921574Y-107511261D01*
X158942112Y-107490723D01*
X159000284Y-107376555D01*
X159015286Y-107281834D01*
X159015286Y-106918166D01*
X159000284Y-106823445D01*
X158942112Y-106709277D01*
X158927430Y-106694595D01*
X158893404Y-106632283D01*
X158898469Y-106561468D01*
X158941016Y-106504632D01*
X159007536Y-106479821D01*
X159016525Y-106479500D01*
X159046080Y-106479500D01*
X159070028Y-106482049D01*
X159071693Y-106482128D01*
X159081876Y-106484320D01*
X159092217Y-106483096D01*
X159115223Y-106480373D01*
X159121154Y-106480023D01*
X159121146Y-106479928D01*
X159126324Y-106479500D01*
X159131524Y-106479500D01*
X159136653Y-106478646D01*
X159136656Y-106478646D01*
X159150565Y-106476331D01*
X159156443Y-106475494D01*
X159197001Y-106470694D01*
X159197002Y-106470694D01*
X159207341Y-106469470D01*
X159215593Y-106465507D01*
X159224626Y-106464004D01*
X159233795Y-106459057D01*
X159233797Y-106459056D01*
X159269732Y-106439666D01*
X159275025Y-106436969D01*
X159314082Y-106418215D01*
X159314086Y-106418212D01*
X159321232Y-106414781D01*
X159325508Y-106411186D01*
X159327431Y-106409263D01*
X159329363Y-106407491D01*
X159329442Y-106407448D01*
X159329555Y-106407572D01*
X159330095Y-106407096D01*
X159335814Y-106404010D01*
X159372417Y-106364413D01*
X159375846Y-106360848D01*
X159830216Y-105906478D01*
X159848964Y-105891336D01*
X159850189Y-105890221D01*
X159858940Y-105884571D01*
X159865387Y-105876393D01*
X159865389Y-105876391D01*
X159879729Y-105858200D01*
X159883675Y-105853759D01*
X159883602Y-105853697D01*
X159886961Y-105849733D01*
X159890638Y-105846056D01*
X159901892Y-105830308D01*
X159905398Y-105825638D01*
X159937156Y-105785353D01*
X159940188Y-105776719D01*
X159945514Y-105769266D01*
X159960203Y-105720150D01*
X159962036Y-105714508D01*
X159976390Y-105673633D01*
X159976390Y-105673632D01*
X159979018Y-105666149D01*
X159979500Y-105660584D01*
X159979500Y-105657876D01*
X159979614Y-105655242D01*
X159979643Y-105655144D01*
X159979807Y-105655151D01*
X159979851Y-105654447D01*
X159981713Y-105648222D01*
X159979597Y-105594365D01*
X159979500Y-105589418D01*
X159979500Y-104753920D01*
X159982049Y-104729972D01*
X159982128Y-104728307D01*
X159984320Y-104718124D01*
X159980373Y-104684777D01*
X159980023Y-104678846D01*
X159979928Y-104678854D01*
X159979500Y-104673676D01*
X159979500Y-104668476D01*
X159978646Y-104663344D01*
X159976331Y-104649435D01*
X159975494Y-104643557D01*
X159970694Y-104602999D01*
X159970694Y-104602998D01*
X159969470Y-104592659D01*
X159965507Y-104584407D01*
X159964004Y-104575374D01*
X159955980Y-104560502D01*
X159939666Y-104530268D01*
X159936969Y-104524975D01*
X159918215Y-104485918D01*
X159918212Y-104485914D01*
X159914781Y-104478768D01*
X159911186Y-104474492D01*
X159909263Y-104472569D01*
X159907491Y-104470637D01*
X159907448Y-104470558D01*
X159907572Y-104470445D01*
X159907096Y-104469905D01*
X159904010Y-104464186D01*
X159864413Y-104427583D01*
X159860848Y-104424154D01*
X159630986Y-104194292D01*
X160706787Y-104194292D01*
X160707156Y-104201110D01*
X160712627Y-104251482D01*
X160716256Y-104266741D01*
X160761008Y-104386118D01*
X160769540Y-104401704D01*
X160845358Y-104502867D01*
X160857919Y-104515428D01*
X160959082Y-104591246D01*
X160974668Y-104599778D01*
X161094051Y-104644533D01*
X161109296Y-104648158D01*
X161159678Y-104653631D01*
X161166492Y-104654000D01*
X161588671Y-104654000D01*
X161603910Y-104649525D01*
X161605115Y-104648135D01*
X161606786Y-104640452D01*
X161606786Y-104072115D01*
X161602311Y-104056876D01*
X161600921Y-104055671D01*
X161593238Y-104054000D01*
X160724902Y-104054000D01*
X160709663Y-104058475D01*
X160708458Y-104059865D01*
X160706787Y-104067548D01*
X160706787Y-104194292D01*
X159630986Y-104194292D01*
X159106478Y-103669784D01*
X159091336Y-103651036D01*
X159090221Y-103649811D01*
X159084571Y-103641060D01*
X159076393Y-103634613D01*
X159076391Y-103634611D01*
X159058200Y-103620271D01*
X159053759Y-103616325D01*
X159053697Y-103616398D01*
X159049733Y-103613039D01*
X159046056Y-103609362D01*
X159030308Y-103598108D01*
X159025638Y-103594602D01*
X158985353Y-103562844D01*
X158976719Y-103559812D01*
X158969266Y-103554486D01*
X158920150Y-103539797D01*
X158914508Y-103537964D01*
X158885807Y-103527885D01*
X160706786Y-103527885D01*
X160711261Y-103543124D01*
X160712651Y-103544329D01*
X160720334Y-103546000D01*
X161588671Y-103546000D01*
X161603910Y-103541525D01*
X161605115Y-103540135D01*
X161606786Y-103532452D01*
X161606786Y-102964116D01*
X161602311Y-102948877D01*
X161600921Y-102947672D01*
X161593238Y-102946001D01*
X161166494Y-102946001D01*
X161159676Y-102946370D01*
X161109304Y-102951841D01*
X161094045Y-102955470D01*
X160974668Y-103000222D01*
X160959082Y-103008754D01*
X160857919Y-103084572D01*
X160845358Y-103097133D01*
X160769540Y-103198296D01*
X160761008Y-103213882D01*
X160716253Y-103333265D01*
X160712628Y-103348510D01*
X160707155Y-103398892D01*
X160706786Y-103405706D01*
X160706786Y-103527885D01*
X158885807Y-103527885D01*
X158873633Y-103523610D01*
X158873632Y-103523610D01*
X158866149Y-103520982D01*
X158860584Y-103520500D01*
X158857876Y-103520500D01*
X158855242Y-103520386D01*
X158855144Y-103520357D01*
X158855151Y-103520193D01*
X158854447Y-103520149D01*
X158848222Y-103518287D01*
X158794365Y-103520403D01*
X158789418Y-103520500D01*
X156109384Y-103520500D01*
X156041263Y-103500498D01*
X156020289Y-103483595D01*
X152206478Y-99669784D01*
X152191336Y-99651036D01*
X152190221Y-99649811D01*
X152184571Y-99641060D01*
X152176393Y-99634613D01*
X152176391Y-99634611D01*
X152158200Y-99620271D01*
X152153759Y-99616325D01*
X152153697Y-99616398D01*
X152149733Y-99613039D01*
X152146056Y-99609362D01*
X152130308Y-99598108D01*
X152125638Y-99594602D01*
X152085353Y-99562844D01*
X152076719Y-99559812D01*
X152069266Y-99554486D01*
X152020150Y-99539797D01*
X152014508Y-99537964D01*
X151973633Y-99523610D01*
X151973632Y-99523610D01*
X151966149Y-99520982D01*
X151960584Y-99520500D01*
X151957876Y-99520500D01*
X151955242Y-99520386D01*
X151955144Y-99520357D01*
X151955151Y-99520193D01*
X151954447Y-99520149D01*
X151948222Y-99518287D01*
X151894365Y-99520403D01*
X151889418Y-99520500D01*
X150266285Y-99520500D01*
X150198164Y-99500498D01*
X150151671Y-99446842D01*
X150140285Y-99394500D01*
X150140285Y-99324934D01*
X150125520Y-99250699D01*
X150069270Y-99166516D01*
X149985087Y-99110266D01*
X149910853Y-99095500D01*
X148885952Y-99095500D01*
X147860720Y-99095501D01*
X147824968Y-99102612D01*
X147798660Y-99107844D01*
X147798658Y-99107845D01*
X147786485Y-99110266D01*
X147776165Y-99117161D01*
X147776164Y-99117162D01*
X147715771Y-99157516D01*
X147702302Y-99166516D01*
X147646052Y-99250699D01*
X147631286Y-99324933D01*
X147631287Y-100475066D01*
X147646052Y-100549301D01*
X147652947Y-100559620D01*
X147652948Y-100559622D01*
X147669292Y-100584082D01*
X147702302Y-100633484D01*
X147712618Y-100640377D01*
X147719890Y-100645236D01*
X147765416Y-100699714D01*
X147774263Y-100770157D01*
X147743621Y-100834200D01*
X147719890Y-100854764D01*
X147702302Y-100866516D01*
X147646052Y-100950699D01*
X147631286Y-101024933D01*
X147631287Y-102175066D01*
X147646052Y-102249301D01*
X147702302Y-102333484D01*
X147712618Y-102340377D01*
X147719890Y-102345236D01*
X147765416Y-102399714D01*
X147774263Y-102470157D01*
X147743621Y-102534200D01*
X147719890Y-102554764D01*
X147702302Y-102566516D01*
X147646052Y-102650699D01*
X147631286Y-102724933D01*
X147631287Y-103875066D01*
X147638398Y-103910818D01*
X147643592Y-103936931D01*
X147646052Y-103949301D01*
X147702302Y-104033484D01*
X147786485Y-104089734D01*
X147860719Y-104104500D01*
X148255286Y-104104500D01*
X148323407Y-104124502D01*
X148369900Y-104178158D01*
X148381286Y-104230500D01*
X148381286Y-107955286D01*
X148361284Y-108023407D01*
X148307628Y-108069900D01*
X148255286Y-108081286D01*
X141516286Y-108081286D01*
X141448165Y-108061284D01*
X141401672Y-108007628D01*
X141390286Y-107955286D01*
X141390286Y-104230499D01*
X141410288Y-104162378D01*
X141463944Y-104115885D01*
X141516286Y-104104499D01*
X141910852Y-104104499D01*
X141946604Y-104097388D01*
X141972912Y-104092156D01*
X141972914Y-104092155D01*
X141985087Y-104089734D01*
X141995407Y-104082839D01*
X141995408Y-104082838D01*
X142058954Y-104040377D01*
X142069270Y-104033484D01*
X142125520Y-103949301D01*
X142140286Y-103875067D01*
X142140286Y-103868828D01*
X142831787Y-103868828D01*
X142832995Y-103881088D01*
X142844101Y-103936931D01*
X142853419Y-103959427D01*
X142895769Y-104022808D01*
X142912978Y-104040017D01*
X142976361Y-104082368D01*
X142998852Y-104091684D01*
X143054701Y-104102793D01*
X143066956Y-104104000D01*
X143813671Y-104104000D01*
X143828910Y-104099525D01*
X143830115Y-104098135D01*
X143831786Y-104090452D01*
X143831786Y-104085884D01*
X144339786Y-104085884D01*
X144344261Y-104101123D01*
X144345651Y-104102328D01*
X144353334Y-104103999D01*
X145104614Y-104103999D01*
X145116874Y-104102791D01*
X145172717Y-104091685D01*
X145195213Y-104082367D01*
X145258594Y-104040017D01*
X145275803Y-104022808D01*
X145318154Y-103959425D01*
X145327470Y-103936934D01*
X145338579Y-103881085D01*
X145339786Y-103868830D01*
X145339786Y-103572115D01*
X145335311Y-103556876D01*
X145333921Y-103555671D01*
X145326238Y-103554000D01*
X144357901Y-103554000D01*
X144342662Y-103558475D01*
X144341457Y-103559865D01*
X144339786Y-103567548D01*
X144339786Y-104085884D01*
X143831786Y-104085884D01*
X143831786Y-103572115D01*
X143827311Y-103556876D01*
X143825921Y-103555671D01*
X143818238Y-103554000D01*
X142849902Y-103554000D01*
X142834663Y-103558475D01*
X142833458Y-103559865D01*
X142831787Y-103567548D01*
X142831787Y-103868828D01*
X142140286Y-103868828D01*
X142140285Y-102724934D01*
X142133174Y-102689182D01*
X142127942Y-102662874D01*
X142127941Y-102662872D01*
X142125520Y-102650699D01*
X142069270Y-102566516D01*
X142051682Y-102554764D01*
X142006156Y-102500286D01*
X141997309Y-102429843D01*
X142027951Y-102365800D01*
X142051682Y-102345236D01*
X142058954Y-102340377D01*
X142069270Y-102333484D01*
X142125520Y-102249301D01*
X142140286Y-102175067D01*
X142140286Y-102080500D01*
X142160288Y-102012379D01*
X142213944Y-101965886D01*
X142266286Y-101954500D01*
X142705287Y-101954500D01*
X142773408Y-101974502D01*
X142819901Y-102028158D01*
X142831287Y-102080500D01*
X142831287Y-102175066D01*
X142846052Y-102249301D01*
X142902302Y-102333484D01*
X142920338Y-102345536D01*
X142965865Y-102400011D01*
X142974714Y-102470454D01*
X142944073Y-102534498D01*
X142920339Y-102555064D01*
X142912979Y-102559982D01*
X142895769Y-102577192D01*
X142853418Y-102640575D01*
X142844102Y-102663066D01*
X142832993Y-102718915D01*
X142831786Y-102731170D01*
X142831786Y-103027885D01*
X142836261Y-103043124D01*
X142837651Y-103044329D01*
X142845334Y-103046000D01*
X145321670Y-103046000D01*
X145336909Y-103041525D01*
X145338114Y-103040135D01*
X145339785Y-103032452D01*
X145339785Y-102731172D01*
X145338577Y-102718912D01*
X145327471Y-102663069D01*
X145318153Y-102640573D01*
X145275803Y-102577192D01*
X145258593Y-102559982D01*
X145251233Y-102555064D01*
X145205706Y-102500587D01*
X145196859Y-102430144D01*
X145227500Y-102366100D01*
X145251231Y-102345537D01*
X145269270Y-102333484D01*
X145325520Y-102249301D01*
X145340286Y-102175067D01*
X145340285Y-101024934D01*
X145325520Y-100950699D01*
X145269270Y-100866516D01*
X145251682Y-100854764D01*
X145206156Y-100800286D01*
X145197309Y-100729843D01*
X145227951Y-100665800D01*
X145251682Y-100645236D01*
X145258954Y-100640377D01*
X145269270Y-100633484D01*
X145325520Y-100549301D01*
X145340286Y-100475067D01*
X145340285Y-99324934D01*
X145325520Y-99250699D01*
X145269270Y-99166516D01*
X145185087Y-99110266D01*
X145110853Y-99095500D01*
X144085952Y-99095500D01*
X143060720Y-99095501D01*
X143024968Y-99102612D01*
X142998660Y-99107844D01*
X142998658Y-99107845D01*
X142986485Y-99110266D01*
X142976165Y-99117161D01*
X142976164Y-99117162D01*
X142915771Y-99157516D01*
X142902302Y-99166516D01*
X142846052Y-99250699D01*
X142831286Y-99324933D01*
X142831286Y-99419500D01*
X142811284Y-99487621D01*
X142757628Y-99534114D01*
X142705286Y-99545500D01*
X142266285Y-99545500D01*
X142198164Y-99525498D01*
X142151671Y-99471842D01*
X142140285Y-99419500D01*
X142140285Y-99324934D01*
X142125520Y-99250699D01*
X142069270Y-99166516D01*
X141985087Y-99110266D01*
X141910853Y-99095500D01*
X140885952Y-99095500D01*
X139860720Y-99095501D01*
X139824968Y-99102612D01*
X139798660Y-99107844D01*
X139798658Y-99107845D01*
X139786485Y-99110266D01*
X139776165Y-99117161D01*
X139776164Y-99117162D01*
X139715771Y-99157516D01*
X139702302Y-99166516D01*
X139646052Y-99250699D01*
X139631286Y-99324933D01*
X139631287Y-100475066D01*
X139646052Y-100549301D01*
X139652947Y-100559620D01*
X139652948Y-100559622D01*
X139669292Y-100584082D01*
X139702302Y-100633484D01*
X139712618Y-100640377D01*
X139719890Y-100645236D01*
X139765416Y-100699714D01*
X139774263Y-100770157D01*
X139743621Y-100834200D01*
X139719890Y-100854764D01*
X139702302Y-100866516D01*
X139646052Y-100950699D01*
X139631286Y-101024933D01*
X139631287Y-102175066D01*
X139646052Y-102249301D01*
X139702302Y-102333484D01*
X139712618Y-102340377D01*
X139719890Y-102345236D01*
X139765416Y-102399714D01*
X139774263Y-102470157D01*
X139743621Y-102534200D01*
X139719890Y-102554764D01*
X139702302Y-102566516D01*
X139646052Y-102650699D01*
X139631286Y-102724933D01*
X139631287Y-103875066D01*
X139638398Y-103910818D01*
X139643592Y-103936931D01*
X139646052Y-103949301D01*
X139702302Y-104033484D01*
X139786485Y-104089734D01*
X139860719Y-104104500D01*
X140255286Y-104104500D01*
X140323407Y-104124502D01*
X140369900Y-104178158D01*
X140381286Y-104230500D01*
X140381286Y-107955286D01*
X140361284Y-108023407D01*
X140307628Y-108069900D01*
X140255286Y-108081286D01*
X133516286Y-108081286D01*
X133448165Y-108061284D01*
X133401672Y-108007628D01*
X133390286Y-107955286D01*
X133390286Y-104230499D01*
X133410288Y-104162378D01*
X133463944Y-104115885D01*
X133516286Y-104104499D01*
X133910852Y-104104499D01*
X133946604Y-104097388D01*
X133972912Y-104092156D01*
X133972914Y-104092155D01*
X133985087Y-104089734D01*
X133995407Y-104082839D01*
X133995408Y-104082838D01*
X134058954Y-104040377D01*
X134069270Y-104033484D01*
X134125520Y-103949301D01*
X134140286Y-103875067D01*
X134140286Y-103868828D01*
X134831787Y-103868828D01*
X134832995Y-103881088D01*
X134844101Y-103936931D01*
X134853419Y-103959427D01*
X134895769Y-104022808D01*
X134912978Y-104040017D01*
X134976361Y-104082368D01*
X134998852Y-104091684D01*
X135054701Y-104102793D01*
X135066956Y-104104000D01*
X135813671Y-104104000D01*
X135828910Y-104099525D01*
X135830115Y-104098135D01*
X135831786Y-104090452D01*
X135831786Y-104085884D01*
X136339786Y-104085884D01*
X136344261Y-104101123D01*
X136345651Y-104102328D01*
X136353334Y-104103999D01*
X137104614Y-104103999D01*
X137116874Y-104102791D01*
X137172717Y-104091685D01*
X137195213Y-104082367D01*
X137258594Y-104040017D01*
X137275803Y-104022808D01*
X137318154Y-103959425D01*
X137327470Y-103936934D01*
X137338579Y-103881085D01*
X137339786Y-103868830D01*
X137339786Y-103572115D01*
X137335311Y-103556876D01*
X137333921Y-103555671D01*
X137326238Y-103554000D01*
X136357901Y-103554000D01*
X136342662Y-103558475D01*
X136341457Y-103559865D01*
X136339786Y-103567548D01*
X136339786Y-104085884D01*
X135831786Y-104085884D01*
X135831786Y-103572115D01*
X135827311Y-103556876D01*
X135825921Y-103555671D01*
X135818238Y-103554000D01*
X134849902Y-103554000D01*
X134834663Y-103558475D01*
X134833458Y-103559865D01*
X134831787Y-103567548D01*
X134831787Y-103868828D01*
X134140286Y-103868828D01*
X134140285Y-102724934D01*
X134133174Y-102689182D01*
X134127942Y-102662874D01*
X134127941Y-102662872D01*
X134125520Y-102650699D01*
X134069270Y-102566516D01*
X134051682Y-102554764D01*
X134006156Y-102500286D01*
X133997309Y-102429843D01*
X134027951Y-102365800D01*
X134051682Y-102345236D01*
X134058954Y-102340377D01*
X134069270Y-102333484D01*
X134125520Y-102249301D01*
X134140286Y-102175067D01*
X134140286Y-102080500D01*
X134160288Y-102012379D01*
X134213944Y-101965886D01*
X134266286Y-101954500D01*
X134705287Y-101954500D01*
X134773408Y-101974502D01*
X134819901Y-102028158D01*
X134831287Y-102080500D01*
X134831287Y-102175066D01*
X134846052Y-102249301D01*
X134902302Y-102333484D01*
X134920338Y-102345536D01*
X134965865Y-102400011D01*
X134974714Y-102470454D01*
X134944073Y-102534498D01*
X134920339Y-102555064D01*
X134912979Y-102559982D01*
X134895769Y-102577192D01*
X134853418Y-102640575D01*
X134844102Y-102663066D01*
X134832993Y-102718915D01*
X134831786Y-102731170D01*
X134831786Y-103027885D01*
X134836261Y-103043124D01*
X134837651Y-103044329D01*
X134845334Y-103046000D01*
X137321670Y-103046000D01*
X137336909Y-103041525D01*
X137338114Y-103040135D01*
X137339785Y-103032452D01*
X137339785Y-102731172D01*
X137338577Y-102718912D01*
X137327471Y-102663069D01*
X137318153Y-102640573D01*
X137275803Y-102577192D01*
X137258593Y-102559982D01*
X137251233Y-102555064D01*
X137205706Y-102500587D01*
X137196859Y-102430144D01*
X137227500Y-102366100D01*
X137251231Y-102345537D01*
X137269270Y-102333484D01*
X137325520Y-102249301D01*
X137340286Y-102175067D01*
X137340285Y-101024934D01*
X137325520Y-100950699D01*
X137269270Y-100866516D01*
X137251682Y-100854764D01*
X137206156Y-100800286D01*
X137197309Y-100729843D01*
X137227951Y-100665800D01*
X137251682Y-100645236D01*
X137258954Y-100640377D01*
X137269270Y-100633484D01*
X137325520Y-100549301D01*
X137340286Y-100475067D01*
X137340285Y-99324934D01*
X137325520Y-99250699D01*
X137269270Y-99166516D01*
X137185087Y-99110266D01*
X137110853Y-99095500D01*
X136085952Y-99095500D01*
X135060720Y-99095501D01*
X135024968Y-99102612D01*
X134998660Y-99107844D01*
X134998658Y-99107845D01*
X134986485Y-99110266D01*
X134976165Y-99117161D01*
X134976164Y-99117162D01*
X134915771Y-99157516D01*
X134902302Y-99166516D01*
X134846052Y-99250699D01*
X134831286Y-99324933D01*
X134831286Y-99419500D01*
X134811284Y-99487621D01*
X134757628Y-99534114D01*
X134705286Y-99545500D01*
X134266285Y-99545500D01*
X134198164Y-99525498D01*
X134151671Y-99471842D01*
X134140285Y-99419500D01*
X134140285Y-99324934D01*
X134125520Y-99250699D01*
X134069270Y-99166516D01*
X133985087Y-99110266D01*
X133910853Y-99095500D01*
X132885952Y-99095500D01*
X131860720Y-99095501D01*
X131824968Y-99102612D01*
X131798660Y-99107844D01*
X131798658Y-99107845D01*
X131786485Y-99110266D01*
X131776165Y-99117161D01*
X131776164Y-99117162D01*
X131715771Y-99157516D01*
X131702302Y-99166516D01*
X131646052Y-99250699D01*
X131631286Y-99324933D01*
X131631287Y-100475066D01*
X131646052Y-100549301D01*
X131652947Y-100559620D01*
X131652948Y-100559622D01*
X131669292Y-100584082D01*
X131702302Y-100633484D01*
X131712618Y-100640377D01*
X131719890Y-100645236D01*
X131765416Y-100699714D01*
X131774263Y-100770157D01*
X131743621Y-100834200D01*
X131719890Y-100854764D01*
X131702302Y-100866516D01*
X131646052Y-100950699D01*
X131631286Y-101024933D01*
X131631287Y-102175066D01*
X131646052Y-102249301D01*
X131702302Y-102333484D01*
X131712618Y-102340377D01*
X131719890Y-102345236D01*
X131765416Y-102399714D01*
X131774263Y-102470157D01*
X131743621Y-102534200D01*
X131719890Y-102554764D01*
X131702302Y-102566516D01*
X131646052Y-102650699D01*
X131631286Y-102724933D01*
X131631287Y-103875066D01*
X131638398Y-103910818D01*
X131643592Y-103936931D01*
X131646052Y-103949301D01*
X131702302Y-104033484D01*
X131786485Y-104089734D01*
X131860719Y-104104500D01*
X132255286Y-104104500D01*
X132323407Y-104124502D01*
X132369900Y-104178158D01*
X132381286Y-104230500D01*
X132381286Y-107955286D01*
X132361284Y-108023407D01*
X132307628Y-108069900D01*
X132255286Y-108081286D01*
X127765750Y-108081286D01*
X127697629Y-108061284D01*
X127651136Y-108007628D01*
X127640357Y-107967639D01*
X127640285Y-107966906D01*
X127640285Y-107960720D01*
X127635413Y-107936226D01*
X127627942Y-107898660D01*
X127627941Y-107898658D01*
X127625520Y-107886485D01*
X127598469Y-107846000D01*
X127576163Y-107812618D01*
X127569270Y-107802302D01*
X127485087Y-107746052D01*
X127410853Y-107731286D01*
X126935863Y-107731286D01*
X126460720Y-107731287D01*
X126424968Y-107738398D01*
X126398660Y-107743630D01*
X126398658Y-107743631D01*
X126386485Y-107746052D01*
X126376165Y-107752947D01*
X126376164Y-107752948D01*
X126374762Y-107753885D01*
X126302302Y-107802302D01*
X126246052Y-107886485D01*
X126231286Y-107960719D01*
X124340285Y-107960719D01*
X124325520Y-107886485D01*
X124298469Y-107846000D01*
X124276163Y-107812618D01*
X124269270Y-107802302D01*
X124185087Y-107746052D01*
X124110853Y-107731286D01*
X123635863Y-107731286D01*
X123160720Y-107731287D01*
X123124968Y-107738398D01*
X123098660Y-107743630D01*
X123098658Y-107743631D01*
X123086485Y-107746052D01*
X123076165Y-107752947D01*
X123076164Y-107752948D01*
X123074762Y-107753885D01*
X123002302Y-107802302D01*
X122995409Y-107812618D01*
X122973104Y-107846000D01*
X122946052Y-107886485D01*
X122944981Y-107891869D01*
X122903443Y-107943417D01*
X122836080Y-107965839D01*
X122767288Y-107948282D01*
X122742485Y-107929014D01*
X122541405Y-107727934D01*
X122507379Y-107665622D01*
X122504500Y-107638839D01*
X122504500Y-105470630D01*
X122505842Y-105458622D01*
X122505346Y-105458582D01*
X122506066Y-105449631D01*
X122508047Y-105440877D01*
X122505600Y-105401444D01*
X122504742Y-105387607D01*
X122504500Y-105379805D01*
X122504500Y-105363774D01*
X122503035Y-105353541D01*
X122502004Y-105343481D01*
X122499654Y-105305601D01*
X122499654Y-105305600D01*
X122499098Y-105296642D01*
X122496050Y-105288199D01*
X122495371Y-105284920D01*
X122491416Y-105269055D01*
X122490473Y-105265831D01*
X122489201Y-105256948D01*
X122485487Y-105248779D01*
X122485485Y-105248773D01*
X122469775Y-105214221D01*
X122465961Y-105204852D01*
X122453077Y-105169163D01*
X122450028Y-105160716D01*
X122444731Y-105153466D01*
X122443154Y-105150499D01*
X122434907Y-105136386D01*
X122433102Y-105133563D01*
X122429388Y-105125395D01*
X122398753Y-105089842D01*
X122392475Y-105081936D01*
X122384527Y-105071056D01*
X122373665Y-105060194D01*
X122367307Y-105053347D01*
X122335056Y-105015918D01*
X122327521Y-105011034D01*
X122320949Y-105005301D01*
X122309545Y-104996074D01*
X121182299Y-103868828D01*
X126831787Y-103868828D01*
X126832995Y-103881088D01*
X126844101Y-103936931D01*
X126853419Y-103959427D01*
X126895769Y-104022808D01*
X126912978Y-104040017D01*
X126976361Y-104082368D01*
X126998852Y-104091684D01*
X127054701Y-104102793D01*
X127066956Y-104104000D01*
X127813671Y-104104000D01*
X127828910Y-104099525D01*
X127830115Y-104098135D01*
X127831786Y-104090452D01*
X127831786Y-104085884D01*
X128339786Y-104085884D01*
X128344261Y-104101123D01*
X128345651Y-104102328D01*
X128353334Y-104103999D01*
X129104614Y-104103999D01*
X129116874Y-104102791D01*
X129172717Y-104091685D01*
X129195213Y-104082367D01*
X129258594Y-104040017D01*
X129275803Y-104022808D01*
X129318154Y-103959425D01*
X129327470Y-103936934D01*
X129338579Y-103881085D01*
X129339786Y-103868830D01*
X129339786Y-103572115D01*
X129335311Y-103556876D01*
X129333921Y-103555671D01*
X129326238Y-103554000D01*
X128357901Y-103554000D01*
X128342662Y-103558475D01*
X128341457Y-103559865D01*
X128339786Y-103567548D01*
X128339786Y-104085884D01*
X127831786Y-104085884D01*
X127831786Y-103572115D01*
X127827311Y-103556876D01*
X127825921Y-103555671D01*
X127818238Y-103554000D01*
X126849902Y-103554000D01*
X126834663Y-103558475D01*
X126833458Y-103559865D01*
X126831787Y-103567548D01*
X126831787Y-103868828D01*
X121182299Y-103868828D01*
X117341405Y-100027934D01*
X117307379Y-99965622D01*
X117304500Y-99938839D01*
X117304500Y-96861161D01*
X117324502Y-96793040D01*
X117341405Y-96772066D01*
X117472066Y-96641405D01*
X117534378Y-96607379D01*
X117561161Y-96604500D01*
X117677233Y-96604500D01*
X117745354Y-96624502D01*
X117791847Y-96678158D01*
X117801951Y-96748432D01*
X117789499Y-96787704D01*
X117784181Y-96798142D01*
X117771288Y-96823445D01*
X117756286Y-96918166D01*
X117756286Y-97281834D01*
X117771288Y-97376555D01*
X117829460Y-97490723D01*
X117849642Y-97510905D01*
X117883668Y-97573217D01*
X117878603Y-97644032D01*
X117849642Y-97689095D01*
X117829460Y-97709277D01*
X117771288Y-97823445D01*
X117756286Y-97918166D01*
X117756286Y-98281834D01*
X117771288Y-98376555D01*
X117829460Y-98490723D01*
X117920063Y-98581326D01*
X118034231Y-98639498D01*
X118128952Y-98654500D01*
X119442620Y-98654500D01*
X119537341Y-98639498D01*
X119651509Y-98581326D01*
X119716430Y-98516405D01*
X119778742Y-98482379D01*
X119805525Y-98479500D01*
X122390616Y-98479500D01*
X122458737Y-98499502D01*
X122479711Y-98516405D01*
X124154551Y-100191246D01*
X125793524Y-101830219D01*
X125808661Y-101848961D01*
X125809779Y-101850190D01*
X125815429Y-101858940D01*
X125823607Y-101865387D01*
X125841799Y-101879728D01*
X125846241Y-101883676D01*
X125846303Y-101883603D01*
X125850268Y-101886963D01*
X125853943Y-101890638D01*
X125858165Y-101893655D01*
X125858171Y-101893660D01*
X125869650Y-101901862D01*
X125874399Y-101905428D01*
X125914647Y-101937156D01*
X125923284Y-101940189D01*
X125930734Y-101945513D01*
X125940710Y-101948497D01*
X125940711Y-101948497D01*
X125956046Y-101953083D01*
X125979849Y-101960202D01*
X125985486Y-101962034D01*
X126020991Y-101974502D01*
X126033851Y-101979018D01*
X126039416Y-101979500D01*
X126042124Y-101979500D01*
X126044758Y-101979614D01*
X126044856Y-101979643D01*
X126044849Y-101979807D01*
X126045553Y-101979851D01*
X126051778Y-101981713D01*
X126105635Y-101979597D01*
X126110582Y-101979500D01*
X126705287Y-101979500D01*
X126773408Y-101999502D01*
X126819901Y-102053158D01*
X126831287Y-102105500D01*
X126831287Y-102175066D01*
X126846052Y-102249301D01*
X126902302Y-102333484D01*
X126920338Y-102345536D01*
X126965865Y-102400011D01*
X126974714Y-102470454D01*
X126944073Y-102534498D01*
X126920339Y-102555064D01*
X126912979Y-102559982D01*
X126895769Y-102577192D01*
X126853418Y-102640575D01*
X126844102Y-102663066D01*
X126832993Y-102718915D01*
X126831786Y-102731170D01*
X126831786Y-103027885D01*
X126836261Y-103043124D01*
X126837651Y-103044329D01*
X126845334Y-103046000D01*
X129321670Y-103046000D01*
X129336909Y-103041525D01*
X129338114Y-103040135D01*
X129339785Y-103032452D01*
X129339785Y-102731172D01*
X129338577Y-102718912D01*
X129327471Y-102663069D01*
X129318153Y-102640573D01*
X129275803Y-102577192D01*
X129258593Y-102559982D01*
X129251233Y-102555064D01*
X129205706Y-102500587D01*
X129196859Y-102430144D01*
X129227500Y-102366100D01*
X129251231Y-102345537D01*
X129269270Y-102333484D01*
X129325520Y-102249301D01*
X129340286Y-102175067D01*
X129340285Y-101024934D01*
X129325520Y-100950699D01*
X129269270Y-100866516D01*
X129251682Y-100854764D01*
X129206156Y-100800286D01*
X129197309Y-100729843D01*
X129227951Y-100665800D01*
X129251682Y-100645236D01*
X129258954Y-100640377D01*
X129269270Y-100633484D01*
X129325520Y-100549301D01*
X129340286Y-100475067D01*
X129340285Y-99324934D01*
X129325520Y-99250699D01*
X129269270Y-99166516D01*
X129185087Y-99110266D01*
X129110853Y-99095500D01*
X128085952Y-99095500D01*
X127060720Y-99095501D01*
X127024968Y-99102612D01*
X126998660Y-99107844D01*
X126998658Y-99107845D01*
X126986485Y-99110266D01*
X126976165Y-99117161D01*
X126976164Y-99117162D01*
X126915771Y-99157516D01*
X126902302Y-99166516D01*
X126846052Y-99250699D01*
X126831286Y-99324933D01*
X126831286Y-99394500D01*
X126811284Y-99462621D01*
X126757628Y-99509114D01*
X126705286Y-99520500D01*
X125609384Y-99520500D01*
X125541263Y-99500498D01*
X125520289Y-99483595D01*
X122906478Y-96869784D01*
X122891336Y-96851036D01*
X122890221Y-96849811D01*
X122884571Y-96841060D01*
X122876393Y-96834613D01*
X122876391Y-96834611D01*
X122858200Y-96820271D01*
X122853759Y-96816325D01*
X122853697Y-96816398D01*
X122849733Y-96813039D01*
X122846056Y-96809362D01*
X122830308Y-96798108D01*
X122825638Y-96794602D01*
X122785353Y-96762844D01*
X122776719Y-96759812D01*
X122769266Y-96754486D01*
X122720150Y-96739797D01*
X122714508Y-96737964D01*
X122673633Y-96723610D01*
X122673632Y-96723610D01*
X122666149Y-96720982D01*
X122660584Y-96720500D01*
X122657876Y-96720500D01*
X122655242Y-96720386D01*
X122655144Y-96720357D01*
X122655151Y-96720193D01*
X122654447Y-96720149D01*
X122648222Y-96718287D01*
X122594365Y-96720403D01*
X122589418Y-96720500D01*
X119816525Y-96720500D01*
X119748404Y-96700498D01*
X119701911Y-96646842D01*
X119695176Y-96600000D01*
X156040448Y-96600000D01*
X156040718Y-96604119D01*
X156057509Y-96860300D01*
X156060634Y-96907983D01*
X156061436Y-96912016D01*
X156061437Y-96912022D01*
X156120042Y-97206647D01*
X156120848Y-97210697D01*
X156122175Y-97214606D01*
X156122176Y-97214610D01*
X156212094Y-97479500D01*
X156220058Y-97502961D01*
X156258703Y-97581326D01*
X156332416Y-97730800D01*
X156356568Y-97779776D01*
X156358862Y-97783209D01*
X156449038Y-97918166D01*
X156528042Y-98036404D01*
X156731545Y-98268455D01*
X156963596Y-98471958D01*
X156967022Y-98474247D01*
X156967027Y-98474251D01*
X157116783Y-98574315D01*
X157220224Y-98643432D01*
X157223923Y-98645256D01*
X157223928Y-98645259D01*
X157329117Y-98697132D01*
X157497039Y-98779942D01*
X157500944Y-98781267D01*
X157500945Y-98781268D01*
X157785390Y-98877824D01*
X157785394Y-98877825D01*
X157789303Y-98879152D01*
X157793347Y-98879956D01*
X157793353Y-98879958D01*
X158087978Y-98938563D01*
X158087984Y-98938564D01*
X158092017Y-98939366D01*
X158096122Y-98939635D01*
X158096129Y-98939636D01*
X158395881Y-98959282D01*
X158400000Y-98959552D01*
X158404119Y-98959282D01*
X158703871Y-98939636D01*
X158703878Y-98939635D01*
X158707983Y-98939366D01*
X158712016Y-98938564D01*
X158712022Y-98938563D01*
X159006647Y-98879958D01*
X159006653Y-98879956D01*
X159010697Y-98879152D01*
X159014606Y-98877825D01*
X159014610Y-98877824D01*
X159299055Y-98781268D01*
X159299056Y-98781267D01*
X159302961Y-98779942D01*
X159470883Y-98697132D01*
X159576072Y-98645259D01*
X159576077Y-98645256D01*
X159579776Y-98643432D01*
X159683217Y-98574315D01*
X159832973Y-98474251D01*
X159832978Y-98474247D01*
X159836404Y-98471958D01*
X160068455Y-98268455D01*
X160271958Y-98036404D01*
X160350963Y-97918166D01*
X160441138Y-97783209D01*
X160443432Y-97779776D01*
X160467585Y-97730800D01*
X160541297Y-97581326D01*
X160579942Y-97502961D01*
X160587906Y-97479500D01*
X160677824Y-97214610D01*
X160677825Y-97214606D01*
X160679152Y-97210697D01*
X160679958Y-97206647D01*
X160738563Y-96912022D01*
X160738564Y-96912016D01*
X160739366Y-96907983D01*
X160742492Y-96860300D01*
X160759282Y-96604119D01*
X160759552Y-96600000D01*
X160756105Y-96547404D01*
X160739636Y-96296129D01*
X160739635Y-96296122D01*
X160739366Y-96292017D01*
X160737971Y-96285000D01*
X160679958Y-95993353D01*
X160679956Y-95993347D01*
X160679152Y-95989303D01*
X160655005Y-95918166D01*
X160581268Y-95700945D01*
X160581267Y-95700944D01*
X160579942Y-95697039D01*
X160443432Y-95420224D01*
X160271958Y-95163596D01*
X160068455Y-94931545D01*
X159836404Y-94728042D01*
X159832978Y-94725753D01*
X159832973Y-94725749D01*
X159583209Y-94558862D01*
X159579776Y-94556568D01*
X159576077Y-94554744D01*
X159576072Y-94554741D01*
X159333242Y-94434991D01*
X159302961Y-94420058D01*
X159202977Y-94386118D01*
X159014610Y-94322176D01*
X159014606Y-94322175D01*
X159010697Y-94320848D01*
X159006653Y-94320044D01*
X159006647Y-94320042D01*
X158712022Y-94261437D01*
X158712016Y-94261436D01*
X158707983Y-94260634D01*
X158703878Y-94260365D01*
X158703871Y-94260364D01*
X158404119Y-94240718D01*
X158400000Y-94240448D01*
X158395881Y-94240718D01*
X158096129Y-94260364D01*
X158096122Y-94260365D01*
X158092017Y-94260634D01*
X158087984Y-94261436D01*
X158087978Y-94261437D01*
X157793353Y-94320042D01*
X157793347Y-94320044D01*
X157789303Y-94320848D01*
X157785394Y-94322175D01*
X157785390Y-94322176D01*
X157597023Y-94386118D01*
X157497039Y-94420058D01*
X157466758Y-94434991D01*
X157223928Y-94554741D01*
X157223923Y-94554744D01*
X157220224Y-94556568D01*
X157216791Y-94558862D01*
X156967027Y-94725749D01*
X156967022Y-94725753D01*
X156963596Y-94728042D01*
X156731545Y-94931545D01*
X156528042Y-95163596D01*
X156356568Y-95420224D01*
X156220058Y-95697039D01*
X156218733Y-95700944D01*
X156218732Y-95700945D01*
X156144996Y-95918166D01*
X156120848Y-95989303D01*
X156120044Y-95993347D01*
X156120042Y-95993353D01*
X156062030Y-96285000D01*
X156060634Y-96292017D01*
X156060365Y-96296122D01*
X156060364Y-96296129D01*
X156048883Y-96471299D01*
X156044247Y-96542031D01*
X156040448Y-96600000D01*
X119695176Y-96600000D01*
X119691807Y-96576568D01*
X119721301Y-96511988D01*
X119727430Y-96505405D01*
X119742112Y-96490723D01*
X119800284Y-96376555D01*
X119815286Y-96281834D01*
X119815286Y-95918166D01*
X119800284Y-95823445D01*
X119742112Y-95709277D01*
X119721577Y-95688742D01*
X119687551Y-95626430D01*
X119692616Y-95555615D01*
X119721574Y-95510554D01*
X119734693Y-95497434D01*
X119746203Y-95481593D01*
X119795302Y-95385231D01*
X119800265Y-95369955D01*
X119798748Y-95358212D01*
X119784774Y-95354000D01*
X117786338Y-95354000D01*
X117773102Y-95357887D01*
X117771411Y-95370273D01*
X117776272Y-95385234D01*
X117790061Y-95412297D01*
X117803165Y-95482074D01*
X117776465Y-95547858D01*
X117718437Y-95588765D01*
X117677794Y-95595500D01*
X117370625Y-95595500D01*
X117358620Y-95594159D01*
X117358580Y-95594655D01*
X117349633Y-95593935D01*
X117340877Y-95591954D01*
X117297339Y-95594655D01*
X117287619Y-95595258D01*
X117279817Y-95595500D01*
X117263774Y-95595500D01*
X117259344Y-95596135D01*
X117259337Y-95596135D01*
X117253536Y-95596966D01*
X117243481Y-95597996D01*
X117205601Y-95600346D01*
X117205599Y-95600346D01*
X117196642Y-95600902D01*
X117188201Y-95603949D01*
X117184923Y-95604628D01*
X117169055Y-95608584D01*
X117165831Y-95609527D01*
X117156948Y-95610799D01*
X117148779Y-95614513D01*
X117148773Y-95614515D01*
X117114221Y-95630225D01*
X117104853Y-95634039D01*
X117060716Y-95649972D01*
X117053466Y-95655269D01*
X117050499Y-95656846D01*
X117036386Y-95665093D01*
X117033563Y-95666898D01*
X117025395Y-95670612D01*
X117018598Y-95676469D01*
X117018596Y-95676470D01*
X117004354Y-95688742D01*
X116990193Y-95700945D01*
X116989847Y-95701243D01*
X116981936Y-95707525D01*
X116971056Y-95715473D01*
X116960194Y-95726335D01*
X116953348Y-95732693D01*
X116915918Y-95764944D01*
X116911034Y-95772479D01*
X116905301Y-95779051D01*
X116896074Y-95790455D01*
X116493206Y-96193323D01*
X116483766Y-96200865D01*
X116484089Y-96201245D01*
X116477253Y-96207063D01*
X116469661Y-96211853D01*
X116463719Y-96218581D01*
X116434329Y-96251859D01*
X116428983Y-96257546D01*
X116417649Y-96268880D01*
X116414964Y-96272463D01*
X116414962Y-96272465D01*
X116411447Y-96277155D01*
X116405062Y-96284998D01*
X116373999Y-96320170D01*
X116370186Y-96328292D01*
X116368346Y-96331093D01*
X116359937Y-96345088D01*
X116358315Y-96348051D01*
X116352930Y-96355236D01*
X116349777Y-96363646D01*
X116349776Y-96363648D01*
X116336454Y-96399182D01*
X116332530Y-96408495D01*
X116312583Y-96450982D01*
X116311201Y-96459856D01*
X116310215Y-96463083D01*
X116306075Y-96478866D01*
X116305354Y-96482144D01*
X116302202Y-96490552D01*
X116301537Y-96499503D01*
X116298724Y-96537357D01*
X116297570Y-96547404D01*
X116295500Y-96560697D01*
X116295500Y-96576062D01*
X116295154Y-96585399D01*
X116291493Y-96634667D01*
X116293366Y-96643442D01*
X116293959Y-96652138D01*
X116295500Y-96666738D01*
X116295500Y-98878897D01*
X116275498Y-98947018D01*
X116221842Y-98993511D01*
X116151568Y-99003615D01*
X116086988Y-98974121D01*
X116051518Y-98923126D01*
X116010564Y-98813882D01*
X116002032Y-98798296D01*
X115926214Y-98697133D01*
X115913653Y-98684572D01*
X115812490Y-98608754D01*
X115796904Y-98600222D01*
X115677521Y-98555467D01*
X115662276Y-98551842D01*
X115611894Y-98546369D01*
X115605080Y-98546000D01*
X115182901Y-98546000D01*
X115167662Y-98550475D01*
X115166457Y-98551865D01*
X115164786Y-98559548D01*
X115164786Y-100235884D01*
X114656786Y-100235884D01*
X114656786Y-98564116D01*
X114652311Y-98548877D01*
X114650921Y-98547672D01*
X114643238Y-98546001D01*
X114216494Y-98546001D01*
X114209676Y-98546370D01*
X114159304Y-98551841D01*
X114144045Y-98555470D01*
X114024668Y-98600222D01*
X114009082Y-98608754D01*
X113907919Y-98684572D01*
X113895359Y-98697132D01*
X113881327Y-98715855D01*
X113824467Y-98758371D01*
X113753649Y-98763397D01*
X113691356Y-98729337D01*
X113657365Y-98667006D01*
X113654500Y-98640291D01*
X113654500Y-94830045D01*
X117771307Y-94830045D01*
X117772824Y-94841788D01*
X117786798Y-94846000D01*
X118513671Y-94846000D01*
X118528910Y-94841525D01*
X118530115Y-94840135D01*
X118531786Y-94832452D01*
X118531786Y-94827885D01*
X119039786Y-94827885D01*
X119044261Y-94843124D01*
X119045651Y-94844329D01*
X119053334Y-94846000D01*
X119785234Y-94846000D01*
X119798470Y-94842113D01*
X119800161Y-94829727D01*
X119795300Y-94814766D01*
X119746203Y-94718407D01*
X119734692Y-94702564D01*
X119658222Y-94626094D01*
X119642379Y-94614583D01*
X119546018Y-94565485D01*
X119527394Y-94559433D01*
X119447471Y-94546775D01*
X119437628Y-94546000D01*
X119057901Y-94546000D01*
X119042662Y-94550475D01*
X119041457Y-94551865D01*
X119039786Y-94559548D01*
X119039786Y-94827885D01*
X118531786Y-94827885D01*
X118531786Y-94564116D01*
X118527311Y-94548877D01*
X118525921Y-94547672D01*
X118518238Y-94546001D01*
X118133946Y-94546001D01*
X118124099Y-94546776D01*
X118044179Y-94559433D01*
X118025553Y-94565485D01*
X117929193Y-94614583D01*
X117913350Y-94626094D01*
X117836880Y-94702564D01*
X117825369Y-94718407D01*
X117776270Y-94814769D01*
X117771307Y-94830045D01*
X113654500Y-94830045D01*
X113654500Y-94559709D01*
X113674502Y-94491588D01*
X113728158Y-94445095D01*
X113798432Y-94434991D01*
X113863012Y-94464485D01*
X113881327Y-94484145D01*
X113895359Y-94502868D01*
X113907919Y-94515428D01*
X114009082Y-94591246D01*
X114024668Y-94599778D01*
X114144051Y-94644533D01*
X114159296Y-94648158D01*
X114209678Y-94653631D01*
X114216492Y-94654000D01*
X114638671Y-94654000D01*
X114653910Y-94649525D01*
X114655115Y-94648135D01*
X114656786Y-94640452D01*
X114656786Y-94635884D01*
X115164786Y-94635884D01*
X115169261Y-94651123D01*
X115170651Y-94652328D01*
X115178334Y-94653999D01*
X115605078Y-94653999D01*
X115611896Y-94653630D01*
X115662268Y-94648159D01*
X115677527Y-94644530D01*
X115796904Y-94599778D01*
X115812490Y-94591246D01*
X115913653Y-94515428D01*
X115926214Y-94502867D01*
X116002032Y-94401704D01*
X116010564Y-94386118D01*
X116055319Y-94266735D01*
X116058944Y-94251490D01*
X116064417Y-94201108D01*
X116064786Y-94194294D01*
X116064786Y-94072115D01*
X116060311Y-94056876D01*
X116058921Y-94055671D01*
X116051238Y-94054000D01*
X115182901Y-94054000D01*
X115167662Y-94058475D01*
X115166457Y-94059865D01*
X115164786Y-94067548D01*
X115164786Y-94635884D01*
X114656786Y-94635884D01*
X114656786Y-93527885D01*
X115164786Y-93527885D01*
X115169261Y-93543124D01*
X115170651Y-93544329D01*
X115178334Y-93546000D01*
X116046670Y-93546000D01*
X116061909Y-93541525D01*
X116063114Y-93540135D01*
X116064785Y-93532452D01*
X116064785Y-93405708D01*
X116064416Y-93398890D01*
X116058945Y-93348518D01*
X116055316Y-93333259D01*
X116010564Y-93213882D01*
X116002032Y-93198296D01*
X115926214Y-93097133D01*
X115913653Y-93084572D01*
X115812490Y-93008754D01*
X115796904Y-93000222D01*
X115677521Y-92955467D01*
X115662276Y-92951842D01*
X115611894Y-92946369D01*
X115605080Y-92946000D01*
X115182901Y-92946000D01*
X115167662Y-92950475D01*
X115166457Y-92951865D01*
X115164786Y-92959548D01*
X115164786Y-93527885D01*
X114656786Y-93527885D01*
X114656786Y-92964116D01*
X114652311Y-92948877D01*
X114650921Y-92947672D01*
X114643238Y-92946001D01*
X114216494Y-92946001D01*
X114209676Y-92946370D01*
X114159304Y-92951841D01*
X114144045Y-92955470D01*
X114024668Y-93000222D01*
X114001207Y-93013066D01*
X113997048Y-93015244D01*
X113997046Y-93015245D01*
X113927172Y-93027819D01*
X113861592Y-93000620D01*
X113821127Y-92942284D01*
X113818625Y-92871331D01*
X113830110Y-92842161D01*
X113927275Y-92664218D01*
X113936994Y-92649095D01*
X114075441Y-92464152D01*
X114087214Y-92450566D01*
X114250566Y-92287214D01*
X114264152Y-92275441D01*
X114449095Y-92136994D01*
X114464218Y-92127275D01*
X114666983Y-92016556D01*
X114683330Y-92009090D01*
X114844644Y-91948923D01*
X114899791Y-91928355D01*
X114917040Y-91923290D01*
X115142786Y-91874182D01*
X115160580Y-91871624D01*
X115180752Y-91870181D01*
X115364642Y-91857029D01*
X115375421Y-91857705D01*
X115375421Y-91857065D01*
X115387828Y-91857065D01*
X115400000Y-91859486D01*
X115412897Y-91856921D01*
X115437476Y-91854500D01*
X161362524Y-91854500D01*
X161387103Y-91856921D01*
G37*
%TD.AperFunction*%
%TD*%
M02*
